<svg width="100" height="100" viewBox="0 0 100 100" fill="none" xmlns="http://www.w3.org/2000/svg">
<mask id="mask0_3848_1106" style="mask-type:luminance" maskUnits="userSpaceOnUse" x="9" y="50" width="5" height="10">
<path d="M13.334 50.667H9.33398V60.0003H13.334V50.667Z" fill="white"/>
</mask>
<g mask="url(#mask0_3848_1106)">
<mask id="mask1_3848_1106" style="mask-type:luminance" maskUnits="userSpaceOnUse" x="9" y="53" width="4" height="5">
<path d="M9.92188 53.334H12.4792V57.334H9.92188V53.334Z" fill="white"/>
</mask>
<g mask="url(#mask1_3848_1106)">
<path d="M11.9375 56.7419L12.0833 57.0544C12.0104 57.1273 11.9219 57.1742 11.8125 57.2002C11.6979 57.2419 11.5833 57.2627 11.4583 57.2627C10.901 57.2627 10.625 56.9867 10.625 56.4294V54.6794H10.125V54.3252H10.625V53.721L11.0625 53.6377V54.3252H11.9792V54.6794H11.0625V56.3877C11.0625 56.7106 11.1979 56.8669 11.4792 56.8669C11.6458 56.8669 11.7813 56.8252 11.8958 56.7419H11.9375Z" fill="white"/>
</g>
</g>
<mask id="mask2_3848_1106" style="mask-type:luminance" maskUnits="userSpaceOnUse" x="6" y="6" width="88" height="88">
<path d="M6.46875 6.46875H93.5313V93.5313H6.46875V6.46875Z" fill="white"/>
</mask>
<g mask="url(#mask2_3848_1106)">
<mask id="mask3_3848_1106" style="mask-type:luminance" maskUnits="userSpaceOnUse" x="6" y="6" width="88" height="88">
<path d="M50 6.46875C25.9583 6.46875 6.46875 25.9583 6.46875 50C6.46875 74.0417 25.9583 93.5313 50 93.5313C74.0417 93.5313 93.5313 74.0417 93.5313 50C93.5313 25.9583 74.0417 6.46875 50 6.46875Z" fill="white"/>
</mask>
<g mask="url(#mask3_3848_1106)">
<mask id="mask4_3848_1106" style="mask-type:luminance" maskUnits="userSpaceOnUse" x="5" y="5" width="90" height="90">
<path d="M94.6673 5.33301H5.33398V94.6663H94.6673V5.33301Z" fill="white"/>
</mask>
<g mask="url(#mask4_3848_1106)">
<mask id="mask5_3848_1106" style="mask-type:luminance" maskUnits="userSpaceOnUse" x="6" y="6" width="88" height="88">
<path d="M6.46875 6.46875H93.5313V93.5313H6.46875V6.46875Z" fill="white"/>
</mask>
<g mask="url(#mask5_3848_1106)">
<mask id="mask6_3848_1106" style="mask-type:luminance" maskUnits="userSpaceOnUse" x="6" y="6" width="88" height="88">
<path d="M50 6.46875C25.9583 6.46875 6.46875 25.9583 6.46875 50C6.46875 74.0417 25.9583 93.5313 50 93.5313C74.0417 93.5313 93.5313 74.0417 93.5313 50C93.5313 25.9583 74.0417 6.46875 50 6.46875Z" fill="white"/>
</mask>
<g mask="url(#mask6_3848_1106)">
<path d="M6.46875 6.46875V93.5313H93.5313V6.46875H6.46875Z" fill="url(#paint0_radial_3848_1106)"/>
</g>
</g>
</g>
</g>
</g>
<mask id="mask7_3848_1106" style="mask-type:luminance" maskUnits="userSpaceOnUse" x="17" y="41" width="65" height="43">
<path d="M81.1768 42V82.6035H18.5107V42H81.1768Z" fill="white" stroke="white" stroke-width="1.33333"/>
</mask>
<g mask="url(#mask7_3848_1106)">
<path d="M33.5977 78.6426L33.3799 78.4443L23.9844 69.9023H23.9834C23.0762 69.0784 22.4792 67.9615 22.2939 66.7529H22.293L18.5488 42.4141L18.5479 42.4102L18.5439 42.3379C18.5479 42.2687 18.5739 42.2028 18.6211 42.1465C18.6926 42.0666 18.7882 42.0265 18.8789 42.0264C21.9138 42.0264 24.5719 43.9651 25.498 46.7588L25.582 47.0322L29.7119 61.4805L30.1084 62.8662L30.9082 61.667L30.9189 61.6494C32.611 59.5544 35.5633 59.1043 37.8066 60.5967L39.8945 61.9922L40.0537 62.0986L40.2451 62.1035C43.3922 62.1964 46.3338 63.7556 48.165 66.3242L48.167 66.3281L48.4492 66.7178V66.7188C48.8146 67.2351 49.1241 67.7781 49.3906 68.3457L50 69.6426L50.5996 68.3418C50.8597 67.7774 51.1673 67.2361 51.5361 66.7217L51.5371 66.7197L51.8174 66.3252C53.6541 63.7558 56.5958 62.1964 59.7373 62.1035L59.9287 62.0986L60.0879 61.9922L62.1816 60.5967C64.4303 59.096 67.3922 59.5564 69.0771 61.666L69.0967 61.6895L69.1328 61.7305L69.9395 62.6523L70.2754 61.4746L74.4004 47.0332C75.2457 44.0888 77.9745 42.0266 81.0352 42.0264C81.1609 42.0264 81.2798 42.0885 81.3262 42.1426L81.3271 42.1436C81.4261 42.2586 81.446 42.363 81.4385 42.4199L77.6943 66.7529C77.5094 67.9597 76.9075 69.077 76.0039 69.9023L66.6084 78.4443L66.3896 78.6426V82.5107C66.3895 82.69 66.2391 82.8438 66.0508 82.8438C65.8597 82.8435 65.7131 82.6921 65.7129 82.5107V78.4951C65.7129 78.3994 65.7516 78.3092 65.8271 78.2393L65.8262 78.2383L75.5469 69.4053L75.5459 69.4043C76.3417 68.6813 76.8635 67.7051 77.0273 66.6494V66.6484L80.5742 43.5908L80.7217 42.6377L79.7773 42.8369C77.5273 43.3137 75.6883 44.9789 75.0508 47.2178L70.3984 63.498C70.3964 63.5023 70.3941 63.5091 70.3896 63.5176C70.3761 63.5435 70.3564 63.5775 70.333 63.6133C70.3094 63.6494 70.2867 63.6806 70.2676 63.7031C70.2597 63.7124 70.2539 63.7178 70.251 63.7207L63.2363 68.7334C63.0866 68.8395 62.8753 68.8062 62.7637 68.6514C62.6702 68.517 62.6861 68.3424 62.793 68.2285L62.8447 68.1836L69.0068 63.7822L69.5801 63.3721L69.1387 62.8223L68.5498 62.0879C67.0895 60.257 64.506 59.852 62.5566 61.1582L60.2178 62.7148C60.1608 62.7513 60.097 62.7705 60.0303 62.7705C56.9985 62.7705 54.1359 64.2431 52.3701 66.7129L52.084 67.1094L52.0811 67.1133C50.9395 68.7193 50.3272 70.6095 50.3271 72.583V82.5107C50.327 82.6944 50.1778 82.8436 49.9941 82.8438C49.8029 82.8438 49.6554 82.6922 49.6553 82.5107V72.583C49.6552 70.6107 49.0497 68.7199 47.9014 67.1123L47.8984 67.1094L47.6123 66.7129H47.6113C45.8504 64.243 42.9881 62.7705 39.957 62.7705C39.89 62.7704 39.8257 62.7517 39.7686 62.7148L37.4307 61.1582C35.4773 59.8583 32.8981 60.2553 31.4316 62.0879L30.8438 62.8223L30.4023 63.373L30.9766 63.7822L37.1406 68.1807V68.1816C37.2883 68.2882 37.3257 68.495 37.2227 68.6504C37.106 68.8054 36.8958 68.8348 36.751 68.7334L29.7256 63.7129C29.7216 63.709 29.7158 63.7015 29.707 63.6914C29.6884 63.6698 29.6671 63.6421 29.6465 63.6104C29.6259 63.5785 29.6098 63.549 29.5996 63.5283C29.5963 63.5217 29.5948 63.517 29.5938 63.5146L24.9375 47.2188C24.295 44.9643 22.4338 43.2916 20.2012 42.8311L19.2617 42.6377L19.4082 43.5859L22.96 66.6475C23.1188 67.7074 23.6477 68.6831 24.4346 69.4033L24.4365 69.4053L34.1602 78.2432C34.233 78.3125 34.2695 78.4012 34.2695 78.4951V82.5107C34.2694 82.6945 34.1203 82.8438 33.9365 82.8438C33.7453 82.8437 33.5978 82.6922 33.5977 82.5107V78.6426Z" fill="white" stroke="url(#paint1_linear_3848_1106)" stroke-width="1.33333"/>
</g>
<mask id="mask8_3848_1106" style="mask-type:luminance" maskUnits="userSpaceOnUse" x="26" y="19" width="48" height="35">
<path d="M72.666 19.9375V52.666H27.333V19.9375H72.666Z" fill="white" stroke="white" stroke-width="1.33333"/>
</mask>
<g mask="url(#mask8_3848_1106)">
<mask id="path-13-inside-1_3848_1106" fill="white">
<path d="M27.9102 43.3698H40.6289C40.2018 44.1146 39.957 44.9635 39.957 45.8438V51.3958C39.957 51.9531 40.4049 52.401 40.957 52.401H59.0247C59.5768 52.401 60.0299 51.9531 60.0299 51.3958V45.8438C60.0299 44.9635 59.7799 44.1146 59.3529 43.3698H72.0716C72.6237 43.3698 73.0768 42.9167 73.0768 42.3646V36.8125C73.0768 34.9323 71.9883 33.1719 70.3008 32.3229L68.0612 31.2083C69.3008 29.9427 70.0664 28.2135 70.0664 26.3073C70.0664 22.4323 66.9102 19.2812 63.0404 19.2812C59.1654 19.2812 56.0143 22.4323 56.0143 26.3073C56.0143 28.2135 56.7799 29.9427 58.0195 31.2083L56.2227 32.1042C55.0456 29.8542 52.6966 28.3125 49.9935 28.3125C47.2852 28.3125 44.9362 29.8542 43.7643 32.099L41.9674 31.2083C43.207 29.9427 43.9727 28.2135 43.9727 26.3073C43.9727 22.4323 40.8164 19.2812 36.9466 19.2812C33.0716 19.2812 29.9206 22.4323 29.9206 26.3073C29.9206 28.2135 30.6862 29.9427 31.9206 31.2083L29.681 32.3229C27.9987 33.1719 26.9102 34.9323 26.9102 36.8125V42.3646C26.9102 42.9167 27.3581 43.3698 27.9102 43.3698ZM36.9466 40.9427L35.0456 39.0469L36.4779 33.3073C36.6341 33.3177 36.7904 33.3333 36.9466 33.3333C37.1029 33.3333 37.2539 33.3177 37.4102 33.3073L38.8424 39.0469L36.9466 40.9427ZM41.9622 50.3906V45.8438C41.9622 44.7188 42.6185 43.6615 43.6237 43.151L46.7852 41.5833C47.0352 41.7083 47.2956 41.8229 47.5612 41.9219L46.0091 48.1406C45.9206 48.4844 46.0247 48.8438 46.2695 49.0938L47.5716 50.3906H41.9622ZM49.9935 49.9792L48.0924 48.0781L49.5247 42.3385C49.681 42.349 49.8372 42.3646 49.9935 42.3646C50.1497 42.3646 50.3008 42.349 50.457 42.3385L51.8893 48.0781L49.9935 49.9792ZM58.0195 50.3906H52.4154L53.7122 49.0938C53.9622 48.8438 54.0612 48.4844 53.9779 48.1406L52.4206 41.9219C52.6862 41.8229 52.9466 41.7083 53.2018 41.5833L56.3529 43.151C57.3685 43.6615 58.0195 44.7188 58.0195 45.8438V50.3906ZM63.0404 40.9427L61.1393 39.0469L62.5716 33.3073C62.7279 33.3177 62.8841 33.3333 63.0404 33.3333C63.1966 33.3333 63.3477 33.3177 63.5039 33.3073L64.9362 39.0469L63.0404 40.9427ZM69.3997 34.1146C70.4154 34.625 71.0664 35.6875 71.0664 36.8125V41.3594H65.4622L66.7591 40.0625C67.0091 39.8125 67.1081 39.4531 67.0247 39.1094L65.4674 32.8906C65.7331 32.7917 65.9935 32.6771 66.2487 32.5469L69.3997 34.1146ZM63.0404 21.2865C65.806 21.2865 68.056 23.5417 68.056 26.3073C68.056 29.0729 65.806 31.3229 63.0404 31.3229C60.2747 31.3229 58.0195 29.0729 58.0195 26.3073C58.0195 23.5417 60.2747 21.2865 63.0404 21.2865ZM57.0195 35.3385C57.0195 34.8854 56.9727 34.4427 56.8893 34.0104L59.832 32.5469C60.082 32.6771 60.3424 32.7917 60.6081 32.8906L59.056 39.1094C58.9674 39.4531 59.0716 39.8125 59.3164 40.0625L60.6185 41.3594H57.2643C57.2591 41.3594 57.2591 41.3542 57.2539 41.3542L55.0143 40.2396C56.2539 38.974 57.0195 37.2448 57.0195 35.3385ZM49.9935 30.3229C52.7591 30.3229 55.0091 32.5729 55.0091 35.3385C55.0091 38.1042 52.7591 40.3542 49.9935 40.3542C47.2279 40.3542 44.9727 38.1042 44.9727 35.3385C44.9727 32.5729 47.2279 30.3229 49.9935 30.3229ZM43.0977 34.0104C43.0143 34.4427 42.9674 34.8854 42.9674 35.3385C42.9674 37.2448 43.7331 38.974 44.9674 40.2396L42.7279 41.3594C42.7227 41.3594 42.7227 41.3594 42.7227 41.3594H39.3685L40.6654 40.0625C40.9154 39.8125 41.0143 39.4531 40.931 39.1094L39.3737 32.8906C39.6445 32.7917 39.9049 32.6771 40.1549 32.5469L43.0977 34.0104ZM36.9466 21.2865C39.7122 21.2865 41.9622 23.5417 41.9622 26.3073C41.9622 29.0729 39.7122 31.3229 36.9466 31.3229C34.1758 31.3229 31.9258 29.0729 31.9258 26.3073C31.9258 23.5417 34.1758 21.2865 36.9466 21.2865ZM28.9154 36.8125C28.9154 35.6875 29.5716 34.625 30.5768 34.1198L33.7383 32.5469C33.9883 32.6771 34.2487 32.7917 34.5143 32.8906L32.9622 39.1094C32.8737 39.4531 32.9727 39.8125 33.2227 40.0625L34.5247 41.3594H28.9154V36.8125Z"/>
</mask>
<path d="M27.9102 43.3698H40.6289C40.2018 44.1146 39.957 44.9635 39.957 45.8438V51.3958C39.957 51.9531 40.4049 52.401 40.957 52.401H59.0247C59.5768 52.401 60.0299 51.9531 60.0299 51.3958V45.8438C60.0299 44.9635 59.7799 44.1146 59.3529 43.3698H72.0716C72.6237 43.3698 73.0768 42.9167 73.0768 42.3646V36.8125C73.0768 34.9323 71.9883 33.1719 70.3008 32.3229L68.0612 31.2083C69.3008 29.9427 70.0664 28.2135 70.0664 26.3073C70.0664 22.4323 66.9102 19.2812 63.0404 19.2812C59.1654 19.2812 56.0143 22.4323 56.0143 26.3073C56.0143 28.2135 56.7799 29.9427 58.0195 31.2083L56.2227 32.1042C55.0456 29.8542 52.6966 28.3125 49.9935 28.3125C47.2852 28.3125 44.9362 29.8542 43.7643 32.099L41.9674 31.2083C43.207 29.9427 43.9727 28.2135 43.9727 26.3073C43.9727 22.4323 40.8164 19.2812 36.9466 19.2812C33.0716 19.2812 29.9206 22.4323 29.9206 26.3073C29.9206 28.2135 30.6862 29.9427 31.9206 31.2083L29.681 32.3229C27.9987 33.1719 26.9102 34.9323 26.9102 36.8125V42.3646C26.9102 42.9167 27.3581 43.3698 27.9102 43.3698ZM36.9466 40.9427L35.0456 39.0469L36.4779 33.3073C36.6341 33.3177 36.7904 33.3333 36.9466 33.3333C37.1029 33.3333 37.2539 33.3177 37.4102 33.3073L38.8424 39.0469L36.9466 40.9427ZM41.9622 50.3906V45.8438C41.9622 44.7188 42.6185 43.6615 43.6237 43.151L46.7852 41.5833C47.0352 41.7083 47.2956 41.8229 47.5612 41.9219L46.0091 48.1406C45.9206 48.4844 46.0247 48.8438 46.2695 49.0938L47.5716 50.3906H41.9622ZM49.9935 49.9792L48.0924 48.0781L49.5247 42.3385C49.681 42.349 49.8372 42.3646 49.9935 42.3646C50.1497 42.3646 50.3008 42.349 50.457 42.3385L51.8893 48.0781L49.9935 49.9792ZM58.0195 50.3906H52.4154L53.7122 49.0938C53.9622 48.8438 54.0612 48.4844 53.9779 48.1406L52.4206 41.9219C52.6862 41.8229 52.9466 41.7083 53.2018 41.5833L56.3529 43.151C57.3685 43.6615 58.0195 44.7188 58.0195 45.8438V50.3906ZM63.0404 40.9427L61.1393 39.0469L62.5716 33.3073C62.7279 33.3177 62.8841 33.3333 63.0404 33.3333C63.1966 33.3333 63.3477 33.3177 63.5039 33.3073L64.9362 39.0469L63.0404 40.9427ZM69.3997 34.1146C70.4154 34.625 71.0664 35.6875 71.0664 36.8125V41.3594H65.4622L66.7591 40.0625C67.0091 39.8125 67.1081 39.4531 67.0247 39.1094L65.4674 32.8906C65.7331 32.7917 65.9935 32.6771 66.2487 32.5469L69.3997 34.1146ZM63.0404 21.2865C65.806 21.2865 68.056 23.5417 68.056 26.3073C68.056 29.0729 65.806 31.3229 63.0404 31.3229C60.2747 31.3229 58.0195 29.0729 58.0195 26.3073C58.0195 23.5417 60.2747 21.2865 63.0404 21.2865ZM57.0195 35.3385C57.0195 34.8854 56.9727 34.4427 56.8893 34.0104L59.832 32.5469C60.082 32.6771 60.3424 32.7917 60.6081 32.8906L59.056 39.1094C58.9674 39.4531 59.0716 39.8125 59.3164 40.0625L60.6185 41.3594H57.2643C57.2591 41.3594 57.2591 41.3542 57.2539 41.3542L55.0143 40.2396C56.2539 38.974 57.0195 37.2448 57.0195 35.3385ZM49.9935 30.3229C52.7591 30.3229 55.0091 32.5729 55.0091 35.3385C55.0091 38.1042 52.7591 40.3542 49.9935 40.3542C47.2279 40.3542 44.9727 38.1042 44.9727 35.3385C44.9727 32.5729 47.2279 30.3229 49.9935 30.3229ZM43.0977 34.0104C43.0143 34.4427 42.9674 34.8854 42.9674 35.3385C42.9674 37.2448 43.7331 38.974 44.9674 40.2396L42.7279 41.3594C42.7227 41.3594 42.7227 41.3594 42.7227 41.3594H39.3685L40.6654 40.0625C40.9154 39.8125 41.0143 39.4531 40.931 39.1094L39.3737 32.8906C39.6445 32.7917 39.9049 32.6771 40.1549 32.5469L43.0977 34.0104ZM36.9466 21.2865C39.7122 21.2865 41.9622 23.5417 41.9622 26.3073C41.9622 29.0729 39.7122 31.3229 36.9466 31.3229C34.1758 31.3229 31.9258 29.0729 31.9258 26.3073C31.9258 23.5417 34.1758 21.2865 36.9466 21.2865ZM28.9154 36.8125C28.9154 35.6875 29.5716 34.625 30.5768 34.1198L33.7383 32.5469C33.9883 32.6771 34.2487 32.7917 34.5143 32.8906L32.9622 39.1094C32.8737 39.4531 32.9727 39.8125 33.2227 40.0625L34.5247 41.3594H28.9154V36.8125Z" fill="white" stroke="url(#paint2_linear_3848_1106)" stroke-width="2.66667" mask="url(#path-13-inside-1_3848_1106)"/>
</g>
<defs>
<radialGradient id="paint0_radial_3848_1106" cx="0" cy="0" r="1" gradientUnits="userSpaceOnUse" gradientTransform="translate(6.46821 6.46821) scale(123.127)">
<stop stop-color="#005B52"/>
<stop offset="0.0078125" stop-color="#005A51"/>
<stop offset="0.0195312" stop-color="#005950"/>
<stop offset="0.03125" stop-color="#005850"/>
<stop offset="0.0429688" stop-color="#00584F"/>
<stop offset="0.0546875" stop-color="#00574E"/>
<stop offset="0.0664062" stop-color="#00564E"/>
<stop offset="0.078125" stop-color="#00554D"/>
<stop offset="0.0898438" stop-color="#00544C"/>
<stop offset="0.101562" stop-color="#00544C"/>
<stop offset="0.113281" stop-color="#00534B"/>
<stop offset="0.125" stop-color="#00524A"/>
<stop offset="0.136719" stop-color="#005149"/>
<stop offset="0.148438" stop-color="#005149"/>
<stop offset="0.160156" stop-color="#005048"/>
<stop offset="0.171875" stop-color="#004F47"/>
<stop offset="0.183594" stop-color="#004E47"/>
<stop offset="0.195312" stop-color="#004D46"/>
<stop offset="0.207031" stop-color="#004D45"/>
<stop offset="0.21875" stop-color="#004C45"/>
<stop offset="0.230469" stop-color="#004B44"/>
<stop offset="0.242188" stop-color="#004A43"/>
<stop offset="0.253906" stop-color="#004943"/>
<stop offset="0.261719" stop-color="#004942"/>
<stop offset="0.269531" stop-color="#004842"/>
<stop offset="0.277344" stop-color="#004841"/>
<stop offset="0.285156" stop-color="#004741"/>
<stop offset="0.292969" stop-color="#004740"/>
<stop offset="0.300781" stop-color="#004640"/>
<stop offset="0.308594" stop-color="#00463F"/>
<stop offset="0.316406" stop-color="#00453F"/>
<stop offset="0.324219" stop-color="#00453E"/>
<stop offset="0.332031" stop-color="#00443E"/>
<stop offset="0.339844" stop-color="#00443D"/>
<stop offset="0.347656" stop-color="#00433D"/>
<stop offset="0.355469" stop-color="#00433C"/>
<stop offset="0.363281" stop-color="#00423C"/>
<stop offset="0.371094" stop-color="#00423C"/>
<stop offset="0.378906" stop-color="#00413B"/>
<stop offset="0.386719" stop-color="#00403B"/>
<stop offset="0.394531" stop-color="#00403A"/>
<stop offset="0.402344" stop-color="#003F3A"/>
<stop offset="0.410156" stop-color="#003F39"/>
<stop offset="0.417969" stop-color="#003E39"/>
<stop offset="0.425781" stop-color="#003E38"/>
<stop offset="0.433594" stop-color="#003D38"/>
<stop offset="0.441406" stop-color="#003D37"/>
<stop offset="0.449219" stop-color="#003C37"/>
<stop offset="0.457031" stop-color="#003C36"/>
<stop offset="0.464844" stop-color="#003B36"/>
<stop offset="0.472656" stop-color="#003B35"/>
<stop offset="0.480469" stop-color="#003A35"/>
<stop offset="0.488281" stop-color="#003A34"/>
<stop offset="0.496094" stop-color="#003934"/>
<stop offset="0.503906" stop-color="#003833"/>
<stop offset="0.515625" stop-color="#003833"/>
<stop offset="0.527344" stop-color="#003732"/>
<stop offset="0.539062" stop-color="#003631"/>
<stop offset="0.550781" stop-color="#003531"/>
<stop offset="0.5625" stop-color="#003430"/>
<stop offset="0.574219" stop-color="#00342F"/>
<stop offset="0.585938" stop-color="#00332E"/>
<stop offset="0.597656" stop-color="#00322E"/>
<stop offset="0.609375" stop-color="#00312D"/>
<stop offset="0.621094" stop-color="#00302C"/>
<stop offset="0.632812" stop-color="#00302C"/>
<stop offset="0.640625" stop-color="#002F2B"/>
<stop offset="0.648438" stop-color="#002F2B"/>
<stop offset="0.65625" stop-color="#002E2A"/>
<stop offset="0.664062" stop-color="#002E2A"/>
<stop offset="0.671875" stop-color="#002D29"/>
<stop offset="0.679688" stop-color="#002D29"/>
<stop offset="0.6875" stop-color="#002C29"/>
<stop offset="0.695312" stop-color="#002B28"/>
<stop offset="0.703125" stop-color="#002B28"/>
<stop offset="0.710938" stop-color="#002A27"/>
<stop offset="0.71875" stop-color="#002A27"/>
<stop offset="0.726562" stop-color="#002926"/>
<stop offset="0.734375" stop-color="#002926"/>
<stop offset="0.742188" stop-color="#002825"/>
<stop offset="0.75" stop-color="#002825"/>
<stop offset="0.757812" stop-color="#002724"/>
<stop offset="0.769531" stop-color="#002623"/>
<stop offset="0.78125" stop-color="#002523"/>
<stop offset="0.792969" stop-color="#002522"/>
<stop offset="0.804688" stop-color="#002421"/>
<stop offset="0.816406" stop-color="#002321"/>
<stop offset="0.824219" stop-color="#002320"/>
<stop offset="0.832031" stop-color="#002220"/>
<stop offset="0.839844" stop-color="#00221F"/>
<stop offset="0.847656" stop-color="#00211F"/>
<stop offset="0.855469" stop-color="#00211E"/>
<stop offset="0.863281" stop-color="#00201E"/>
<stop offset="0.871094" stop-color="#001F1E"/>
<stop offset="0.878906" stop-color="#001F1D"/>
<stop offset="0.890625" stop-color="#001E1C"/>
<stop offset="0.902344" stop-color="#001D1C"/>
<stop offset="0.914062" stop-color="#001D1B"/>
<stop offset="0.921875" stop-color="#001C1A"/>
<stop offset="0.929688" stop-color="#001C1A"/>
<stop offset="0.9375" stop-color="#001B1A"/>
<stop offset="0.945312" stop-color="#001A19"/>
<stop offset="0.957031" stop-color="#001A18"/>
<stop offset="0.964844" stop-color="#001918"/>
<stop offset="0.972656" stop-color="#001817"/>
<stop offset="0.984375" stop-color="#001817"/>
<stop offset="0.992188" stop-color="#001716"/>
<stop offset="1" stop-color="#001716"/>
</radialGradient>
<linearGradient id="paint1_linear_3848_1106" x1="49.9918" y1="41.3594" x2="49.9918" y2="83.5104" gradientUnits="userSpaceOnUse">
<stop stop-color="#F1DF7E"/>
<stop offset="0.29" stop-color="#E1AB3D"/>
<stop offset="0.695" stop-color="#FAF398"/>
<stop offset="1" stop-color="#CBA14D"/>
</linearGradient>
<linearGradient id="paint2_linear_3848_1106" x1="49.9935" y1="19.2812" x2="49.9935" y2="52.401" gradientUnits="userSpaceOnUse">
<stop stop-color="#F1DF7E"/>
<stop offset="0.29" stop-color="#E1AB3D"/>
<stop offset="0.695" stop-color="#FAF398"/>
<stop offset="1" stop-color="#CBA14D"/>
</linearGradient>
</defs>
</svg>
