<svg width="100" height="100" viewBox="0 0 100 100" fill="none" xmlns="http://www.w3.org/2000/svg">
<mask id="mask0_3848_1152" style="mask-type:luminance" maskUnits="userSpaceOnUse" x="9" y="50" width="5" height="10">
<path d="M13.334 50.667H9.33398V60.0003H13.334V50.667Z" fill="white"/>
</mask>
<g mask="url(#mask0_3848_1152)">
<mask id="mask1_3848_1152" style="mask-type:luminance" maskUnits="userSpaceOnUse" x="9" y="53" width="4" height="5">
<path d="M9.92188 53.334H12.4792V57.334H9.92188V53.334Z" fill="white"/>
</mask>
<g mask="url(#mask1_3848_1152)">
<path d="M11.9375 56.7419L12.0833 57.0544C12.0104 57.1273 11.9219 57.1742 11.8125 57.2002C11.6979 57.2419 11.5833 57.2627 11.4583 57.2627C10.901 57.2627 10.625 56.9867 10.625 56.4294V54.6794H10.125V54.3252H10.625V53.721L11.0625 53.6377V54.3252H11.9792V54.6794H11.0625V56.3877C11.0625 56.7106 11.1979 56.8669 11.4792 56.8669C11.6458 56.8669 11.7813 56.8252 11.8958 56.7419H11.9375Z" fill="white"/>
</g>
</g>
<mask id="mask2_3848_1152" style="mask-type:luminance" maskUnits="userSpaceOnUse" x="6" y="6" width="88" height="88">
<path d="M6.46875 6.46875H93.5313V93.5313H6.46875V6.46875Z" fill="white"/>
</mask>
<g mask="url(#mask2_3848_1152)">
<mask id="mask3_3848_1152" style="mask-type:luminance" maskUnits="userSpaceOnUse" x="6" y="6" width="88" height="88">
<path d="M50 6.46875C25.9583 6.46875 6.46875 25.9583 6.46875 50C6.46875 74.0417 25.9583 93.5313 50 93.5313C74.0417 93.5313 93.5313 74.0417 93.5313 50C93.5313 25.9583 74.0417 6.46875 50 6.46875Z" fill="white"/>
</mask>
<g mask="url(#mask3_3848_1152)">
<mask id="mask4_3848_1152" style="mask-type:luminance" maskUnits="userSpaceOnUse" x="5" y="5" width="90" height="90">
<path d="M94.6673 5.33301H5.33398V94.6663H94.6673V5.33301Z" fill="white"/>
</mask>
<g mask="url(#mask4_3848_1152)">
<mask id="mask5_3848_1152" style="mask-type:luminance" maskUnits="userSpaceOnUse" x="6" y="6" width="88" height="88">
<path d="M6.46875 6.46875H93.5313V93.5313H6.46875V6.46875Z" fill="white"/>
</mask>
<g mask="url(#mask5_3848_1152)">
<mask id="mask6_3848_1152" style="mask-type:luminance" maskUnits="userSpaceOnUse" x="6" y="6" width="88" height="88">
<path d="M50 6.46875C25.9583 6.46875 6.46875 25.9583 6.46875 50C6.46875 74.0417 25.9583 93.5313 50 93.5313C74.0417 93.5313 93.5313 74.0417 93.5313 50C93.5313 25.9583 74.0417 6.46875 50 6.46875Z" fill="white"/>
</mask>
<g mask="url(#mask6_3848_1152)">
<path d="M6.46875 6.46875V93.5313H93.5313V6.46875H6.46875Z" fill="url(#paint0_radial_3848_1152)"/>
</g>
</g>
</g>
</g>
</g>
<mask id="path-10-inside-1_3848_1152" fill="white">
<path fill-rule="evenodd" clip-rule="evenodd" d="M38.7865 30.3542C38.4583 30.3542 38.1667 30.099 38.1667 29.7344V26.9948C38.1667 26.2604 37.5833 25.6406 36.8542 25.6406C36.1198 25.6406 35.5 26.2604 35.5 26.9948V29.7344C35.5 30.099 35.2448 30.3542 34.9167 30.3542C34.5885 30.3542 34.2969 30.099 34.2969 29.7344V26.9948C34.2969 25.5677 35.4271 24.4375 36.8542 24.4375C38.2396 24.4375 39.4063 25.5677 39.4063 26.9948V29.7344C39.4063 30.099 39.1146 30.3542 38.7865 30.3542Z"/>
</mask>
<path fill-rule="evenodd" clip-rule="evenodd" d="M38.7865 30.3542C38.4583 30.3542 38.1667 30.099 38.1667 29.7344V26.9948C38.1667 26.2604 37.5833 25.6406 36.8542 25.6406C36.1198 25.6406 35.5 26.2604 35.5 26.9948V29.7344C35.5 30.099 35.2448 30.3542 34.9167 30.3542C34.5885 30.3542 34.2969 30.099 34.2969 29.7344V26.9948C34.2969 25.5677 35.4271 24.4375 36.8542 24.4375C38.2396 24.4375 39.4063 25.5677 39.4063 26.9948V29.7344C39.4063 30.099 39.1146 30.3542 38.7865 30.3542Z" fill="white"/>
<path d="M38.7865 30.3542V29.0208C39.1429 29.0208 39.5 29.3118 39.5 29.7344H38.1667H36.8333C36.8333 30.8861 37.7738 31.6875 38.7865 31.6875V30.3542ZM38.1667 29.7344H39.5V26.9948H38.1667H36.8333V29.7344H38.1667ZM38.1667 26.9948H39.5C39.5 25.5753 38.3699 24.3073 36.8542 24.3073V25.6406V26.974C36.8506 26.974 36.8457 26.9735 36.8404 26.9724C36.8352 26.9713 36.8307 26.9697 36.8273 26.9682C36.8206 26.9653 36.8198 26.9634 36.8222 26.9659C36.8248 26.9686 36.8279 26.973 36.8302 26.9786C36.8322 26.9835 36.8333 26.9886 36.8333 26.9948H38.1667ZM36.8542 25.6406V24.3073C35.3834 24.3073 34.1667 25.524 34.1667 26.9948H35.5H36.8333C36.8333 27.0002 36.832 27.0029 36.8327 27.0013C36.8338 26.9986 36.8374 26.9922 36.8445 26.9851C36.8516 26.978 36.858 26.9745 36.8607 26.9733C36.8623 26.9726 36.8596 26.974 36.8542 26.974V25.6406ZM35.5 26.9948H34.1667V29.7344H35.5H36.8333V26.9948H35.5ZM35.5 29.7344H34.1667C34.1667 29.5989 34.2182 29.4155 34.3687 29.2584C34.5199 29.1007 34.7238 29.0208 34.9167 29.0208V30.3542V31.6875C36.0341 31.6875 36.8333 30.7813 36.8333 29.7344H35.5ZM34.9167 30.3542V29.0208C35.2731 29.0208 35.6302 29.3118 35.6302 29.7344H34.2969H32.9635C32.9635 30.8861 33.904 31.6875 34.9167 31.6875V30.3542ZM34.2969 29.7344H35.6302V26.9948H34.2969H32.9635V29.7344H34.2969ZM34.2969 26.9948H35.6302C35.6302 26.3041 36.1635 25.7708 36.8542 25.7708V24.4375V23.1042C34.6907 23.1042 32.9635 24.8313 32.9635 26.9948H34.2969ZM36.8542 24.4375V25.7708C37.5138 25.7708 38.0729 26.3147 38.0729 26.9948H39.4062H40.7396C40.7396 24.8207 38.9653 23.1042 36.8542 23.1042V24.4375ZM39.4062 26.9948H38.0729V29.7344H39.4062H40.7396V26.9948H39.4062ZM39.4062 29.7344H38.0729C38.0729 29.3118 38.43 29.0208 38.7865 29.0208V30.3542V31.6875C39.7991 31.6875 40.7396 30.8861 40.7396 29.7344H39.4062Z" fill="url(#paint1_linear_3848_1152)" mask="url(#path-10-inside-1_3848_1152)"/>
<mask id="path-12-inside-2_3848_1152" fill="white">
<path fill-rule="evenodd" clip-rule="evenodd" d="M38.7865 28.9639H34.9167C34.5885 28.9639 34.2969 28.7087 34.2969 28.3441C34.2969 28.016 34.5885 27.7607 34.9167 27.7607H38.7865C39.1146 27.7607 39.4063 28.016 39.4063 28.3441C39.4063 28.7087 39.1146 28.9639 38.7865 28.9639Z"/>
</mask>
<path fill-rule="evenodd" clip-rule="evenodd" d="M38.7865 28.9639H34.9167C34.5885 28.9639 34.2969 28.7087 34.2969 28.3441C34.2969 28.016 34.5885 27.7607 34.9167 27.7607H38.7865C39.1146 27.7607 39.4063 28.016 39.4063 28.3441C39.4063 28.7087 39.1146 28.9639 38.7865 28.9639Z" fill="white"/>
<path d="M38.7865 28.9639V27.6305H34.9167V28.9639V30.2972H38.7865V28.9639ZM34.9167 28.9639V27.6305C35.2731 27.6305 35.6302 27.9215 35.6302 28.3441H34.2969H32.9635C32.9635 29.4958 33.904 30.2972 34.9167 30.2972V28.9639ZM34.2969 28.3441H35.6302C35.6302 28.5917 35.5171 28.7904 35.3865 28.9106C35.2608 29.0262 35.0958 29.0941 34.9167 29.0941V27.7607V26.4274C33.959 26.4274 32.9635 27.1771 32.9635 28.3441H34.2969ZM34.9167 27.7607V29.0941H38.7865V27.7607V26.4274H34.9167V27.7607ZM38.7865 27.7607V29.0941C38.6073 29.0941 38.4423 29.0262 38.3167 28.9106C38.186 28.7904 38.0729 28.5917 38.0729 28.3441H39.4062H40.7396C40.7396 27.1771 39.7441 26.4274 38.7865 26.4274V27.7607ZM39.4062 28.3441H38.0729C38.0729 27.9215 38.43 27.6305 38.7865 27.6305V28.9639V30.2972C39.7991 30.2972 40.7396 29.4958 40.7396 28.3441H39.4062Z" fill="url(#paint2_linear_3848_1152)" mask="url(#path-12-inside-2_3848_1152)"/>
<mask id="path-14-inside-3_3848_1152" fill="white">
<path fill-rule="evenodd" clip-rule="evenodd" d="M42.7663 30.3542C42.4017 30.3542 42.1465 30.099 42.1465 29.7344V25.0208C42.1465 24.6927 42.4017 24.4375 42.7663 24.4375C43.0996 24.4375 43.3548 24.6927 43.3548 25.0208V29.7344C43.3548 30.099 43.0996 30.3542 42.7663 30.3542Z"/>
</mask>
<path fill-rule="evenodd" clip-rule="evenodd" d="M42.7663 30.3542C42.4017 30.3542 42.1465 30.099 42.1465 29.7344V25.0208C42.1465 24.6927 42.4017 24.4375 42.7663 24.4375C43.0996 24.4375 43.3548 24.6927 43.3548 25.0208V29.7344C43.3548 30.099 43.0996 30.3542 42.7663 30.3542Z" fill="white"/>
<path d="M42.7663 30.3542V29.0208C42.9034 29.0208 43.0986 29.0743 43.2625 29.2382C43.4264 29.4021 43.4798 29.5973 43.4798 29.7344H42.1465H40.8132C40.8132 30.236 40.9942 30.7412 41.3769 31.1238C41.7595 31.5064 42.2646 31.6875 42.7663 31.6875V30.3542ZM42.1465 29.7344H43.4798V25.0208H42.1465H40.8132V29.7344H42.1465ZM42.1465 25.0208H43.4798C43.4798 25.2137 43.3999 25.4176 43.2422 25.5688C43.0852 25.7193 42.9018 25.7708 42.7663 25.7708V24.4375V23.1042C41.7194 23.1042 40.8132 23.9034 40.8132 25.0208H42.1465ZM42.7663 24.4375V25.7708C42.371 25.7708 42.0215 25.4369 42.0215 25.0208H43.3548H44.6882C44.6882 23.9486 43.8282 23.1042 42.7663 23.1042V24.4375ZM43.3548 25.0208H42.0215V29.7344H43.3548H44.6882V25.0208H43.3548ZM43.3548 29.7344H42.0215C42.0215 29.5987 42.0733 29.4136 42.2258 29.2555C42.3789 29.0966 42.5817 29.0208 42.7663 29.0208V30.3542V31.6875C43.8813 31.6875 44.6882 30.7892 44.6882 29.7344H43.3548Z" fill="url(#paint3_linear_3848_1152)" mask="url(#path-14-inside-3_3848_1152)"/>
<mask id="path-16-inside-4_3848_1152" fill="white">
<path fill-rule="evenodd" clip-rule="evenodd" d="M44.1569 25.6406H41.3444C40.9798 25.6406 40.7246 25.3854 40.7246 25.0208C40.7246 24.6927 40.9798 24.4375 41.3444 24.4375H44.1569C44.5215 24.4375 44.7767 24.6927 44.7767 25.0208C44.7767 25.3854 44.5215 25.6406 44.1569 25.6406Z"/>
</mask>
<path fill-rule="evenodd" clip-rule="evenodd" d="M44.1569 25.6406H41.3444C40.9798 25.6406 40.7246 25.3854 40.7246 25.0208C40.7246 24.6927 40.9798 24.4375 41.3444 24.4375H44.1569C44.5215 24.4375 44.7767 24.6927 44.7767 25.0208C44.7767 25.3854 44.5215 25.6406 44.1569 25.6406Z" fill="white"/>
<path d="M44.1569 25.6406V24.3073H41.3444V25.6406V26.974H44.1569V25.6406ZM41.3444 25.6406V24.3073C41.4815 24.3073 41.6767 24.3608 41.8406 24.5246C42.0045 24.6885 42.0579 24.8837 42.0579 25.0208H40.7246H39.3913C39.3913 25.5225 39.5723 26.0276 39.955 26.4103C40.3376 26.7929 40.8427 26.974 41.3444 26.974V25.6406ZM40.7246 25.0208H42.0579C42.0579 25.2137 41.978 25.4176 41.8203 25.5688C41.6633 25.7193 41.4799 25.7708 41.3444 25.7708V24.4375V23.1042C40.2975 23.1042 39.3913 23.9034 39.3913 25.0208H40.7246ZM41.3444 24.4375V25.7708H44.1569V24.4375V23.1042H41.3444V24.4375ZM44.1569 24.4375V25.7708C44.0214 25.7708 43.838 25.7193 43.681 25.5688C43.5233 25.4176 43.4434 25.2137 43.4434 25.0208H44.7767H46.11C46.11 23.9034 45.2038 23.1042 44.1569 23.1042V24.4375ZM44.7767 25.0208H43.4434C43.4434 24.8837 43.4968 24.6885 43.6607 24.5246C43.8246 24.3608 44.0198 24.3073 44.1569 24.3073V25.6406V26.974C44.6586 26.974 45.1637 26.7929 45.5463 26.4103C45.929 26.0276 46.11 25.5225 46.11 25.0208H44.7767Z" fill="url(#paint4_linear_3848_1152)" mask="url(#path-16-inside-4_3848_1152)"/>
<mask id="path-18-inside-5_3848_1152" fill="white">
<path fill-rule="evenodd" clip-rule="evenodd" d="M44.1569 30.3538H41.3444C40.9798 30.3538 40.7246 30.0986 40.7246 29.734C40.7246 29.4007 40.9798 29.1455 41.3444 29.1455H44.1569C44.5215 29.1455 44.7767 29.4007 44.7767 29.734C44.7767 30.0986 44.5215 30.3538 44.1569 30.3538Z"/>
</mask>
<path fill-rule="evenodd" clip-rule="evenodd" d="M44.1569 30.3538H41.3444C40.9798 30.3538 40.7246 30.0986 40.7246 29.734C40.7246 29.4007 40.9798 29.1455 41.3444 29.1455H44.1569C44.5215 29.1455 44.7767 29.4007 44.7767 29.734C44.7767 30.0986 44.5215 30.3538 44.1569 30.3538Z" fill="white"/>
<path d="M44.1569 30.3538V29.0205H41.3444V30.3538V31.6872H44.1569V30.3538ZM41.3444 30.3538V29.0205C41.4815 29.0205 41.6767 29.074 41.8406 29.2379C42.0045 29.4017 42.0579 29.597 42.0579 29.734H40.7246H39.3913C39.3913 30.2357 39.5723 30.7408 39.955 31.1235C40.3376 31.5061 40.8427 31.6872 41.3444 31.6872V30.3538ZM40.7246 29.734H42.0579C42.0579 29.9187 41.9822 30.1214 41.8233 30.2746C41.6652 30.427 41.4801 30.4788 41.3444 30.4788V29.1455V27.8122C40.2896 27.8122 39.3913 28.619 39.3913 29.734H40.7246ZM41.3444 29.1455V30.4788H44.1569V29.1455V27.8122H41.3444V29.1455ZM44.1569 29.1455V30.4788C44.0212 30.4788 43.8361 30.427 43.678 30.2746C43.5191 30.1214 43.4434 29.9187 43.4434 29.734H44.7767H46.11C46.11 28.619 45.2117 27.8122 44.1569 27.8122V29.1455ZM44.7767 29.734H43.4434C43.4434 29.597 43.4968 29.4017 43.6607 29.2379C43.8246 29.074 44.0198 29.0205 44.1569 29.0205V30.3538V31.6872C44.6586 31.6872 45.1637 31.5061 45.5463 31.1235C45.929 30.7408 46.11 30.2357 46.11 29.734H44.7767Z" fill="url(#paint5_linear_3848_1152)" mask="url(#path-18-inside-5_3848_1152)"/>
<mask id="mask7_3848_1152" style="mask-type:luminance" maskUnits="userSpaceOnUse" x="30" y="18" width="20" height="18">
<path d="M48.666 19.5156V35.333H31.333V19.5156H48.666Z" fill="white" stroke="white" stroke-width="1.33333"/>
</mask>
<g mask="url(#mask7_3848_1152)">
<mask id="path-21-inside-6_3848_1152" fill="white">
<path fill-rule="evenodd" clip-rule="evenodd" d="M45.2493 35.9372H33.8223C32.2858 35.9372 31.0098 34.6611 31.0098 33.0934V21.6976C31.0098 20.1299 32.2858 18.8486 33.8223 18.8486H45.2493C46.7858 18.8486 48.0618 20.1299 48.0618 21.6976V33.0934C48.0618 34.6611 46.7858 35.9372 45.2493 35.9372ZM33.8223 20.0934C32.9421 20.0934 32.2129 20.7861 32.2129 21.6976V33.0934C32.2129 33.9684 32.9421 34.6976 33.8223 34.6976H45.2493C46.1296 34.6976 46.8587 33.9684 46.8587 33.0934V21.6976C46.8587 20.7861 46.1296 20.0934 45.2493 20.0934H33.8223Z"/>
</mask>
<path fill-rule="evenodd" clip-rule="evenodd" d="M45.2493 35.9372H33.8223C32.2858 35.9372 31.0098 34.6611 31.0098 33.0934V21.6976C31.0098 20.1299 32.2858 18.8486 33.8223 18.8486H45.2493C46.7858 18.8486 48.0618 20.1299 48.0618 21.6976V33.0934C48.0618 34.6611 46.7858 35.9372 45.2493 35.9372ZM33.8223 20.0934C32.9421 20.0934 32.2129 20.7861 32.2129 21.6976V33.0934C32.2129 33.9684 32.9421 34.6976 33.8223 34.6976H45.2493C46.1296 34.6976 46.8587 33.9684 46.8587 33.0934V21.6976C46.8587 20.7861 46.1296 20.0934 45.2493 20.0934H33.8223Z" fill="white"/>
<path d="M45.2493 35.9372V34.6038H33.8223V35.9372V37.2705H45.2493V35.9372ZM33.8223 35.9372V34.6038C33.0317 34.6038 32.3431 33.9343 32.3431 33.0934H31.0098H29.6764C29.6764 35.3879 31.5399 37.2705 33.8223 37.2705V35.9372ZM31.0098 33.0934H32.3431V21.6976H31.0098H29.6764V33.0934H31.0098ZM31.0098 21.6976H32.3431C32.3431 20.8535 33.0349 20.182 33.8223 20.182V18.8486V17.5153C31.5367 17.5153 29.6764 19.4063 29.6764 21.6976H31.0098ZM33.8223 18.8486V20.182H45.2493V18.8486V17.5153H33.8223V18.8486ZM45.2493 18.8486V20.182C46.0367 20.182 46.7285 20.8535 46.7285 21.6976H48.0618H49.3952C49.3952 19.4063 47.5349 17.5153 45.2493 17.5153V18.8486ZM48.0618 21.6976H46.7285V33.0934H48.0618H49.3952V21.6976H48.0618ZM48.0618 33.0934H46.7285C46.7285 33.9343 46.0399 34.6038 45.2493 34.6038V35.9372V37.2705C47.5317 37.2705 49.3952 35.3879 49.3952 33.0934H48.0618ZM33.8223 20.0934V18.7601C32.2284 18.7601 30.8796 20.0273 30.8796 21.6976H32.2129H33.5462C33.5462 21.6089 33.578 21.5479 33.6218 21.505C33.6685 21.4591 33.7368 21.4268 33.8223 21.4268V20.0934ZM32.2129 21.6976H30.8796V33.0934H32.2129H33.5462V21.6976H32.2129ZM32.2129 33.0934H30.8796C30.8796 34.7076 32.2085 36.0309 33.8223 36.0309V34.6976V33.3643C33.7568 33.3643 33.6873 33.3377 33.6293 33.2798C33.5711 33.2217 33.5462 33.154 33.5462 33.0934H32.2129ZM33.8223 34.6976V36.0309H45.2493V34.6976V33.3643H33.8223V34.6976ZM45.2493 34.6976V36.0309C46.8631 36.0309 48.1921 34.7076 48.1921 33.0934H46.8587H45.5254C45.5254 33.154 45.5006 33.2217 45.4424 33.2798C45.3843 33.3377 45.3148 33.3643 45.2493 33.3643V34.6976ZM46.8587 33.0934H48.1921V21.6976H46.8587H45.5254V33.0934H46.8587ZM46.8587 21.6976H48.1921C48.1921 20.0273 46.8432 18.7601 45.2493 18.7601V20.0934V21.4268C45.3348 21.4268 45.4031 21.4591 45.4498 21.505C45.4936 21.5479 45.5254 21.6089 45.5254 21.6976H46.8587ZM45.2493 20.0934V18.7601H33.8223V20.0934V21.4268H45.2493V20.0934Z" fill="url(#paint6_linear_3848_1152)" mask="url(#path-21-inside-6_3848_1152)"/>
</g>
<mask id="path-23-inside-7_3848_1152" fill="white">
<path fill-rule="evenodd" clip-rule="evenodd" d="M49.9993 40.8698C49.6712 40.8698 49.416 40.5781 49.416 40.25V35.1354C49.416 34.9896 49.4525 34.8438 49.5618 34.7344L60.041 22.9375C60.2598 22.6823 60.6973 22.6823 60.9525 22.9375L71.3952 34.7344C71.5046 34.8438 71.5775 34.9896 71.5775 35.1354V37.5104C71.5775 37.8385 71.2858 38.1302 70.9577 38.1302C70.6296 38.1302 70.3379 37.8385 70.3379 37.5104V35.3906L60.4785 24.2552L50.6191 35.3906V40.25C50.6191 40.5781 50.3639 40.8698 49.9993 40.8698Z"/>
</mask>
<path fill-rule="evenodd" clip-rule="evenodd" d="M49.9993 40.8698C49.6712 40.8698 49.416 40.5781 49.416 40.25V35.1354C49.416 34.9896 49.4525 34.8438 49.5618 34.7344L60.041 22.9375C60.2598 22.6823 60.6973 22.6823 60.9525 22.9375L71.3952 34.7344C71.5046 34.8438 71.5775 34.9896 71.5775 35.1354V37.5104C71.5775 37.8385 71.2858 38.1302 70.9577 38.1302C70.6296 38.1302 70.3379 37.8385 70.3379 37.5104V35.3906L60.4785 24.2552L50.6191 35.3906V40.25C50.6191 40.5781 50.3639 40.8698 49.9993 40.8698Z" fill="white"/>
<path d="M49.5618 34.7344L50.5047 35.6772L50.5325 35.6493L50.5587 35.6199L49.5618 34.7344ZM60.041 22.9375L61.0379 23.823L61.0457 23.8142L61.0534 23.8052L60.041 22.9375ZM60.9525 22.9375L61.9508 22.0537L61.924 22.0234L61.8953 21.9947L60.9525 22.9375ZM71.3952 34.7344L70.3968 35.6181L70.4237 35.6485L70.4524 35.6772L71.3952 34.7344ZM70.3379 35.3906H71.6712V34.8852L71.3362 34.5068L70.3379 35.3906ZM60.4785 24.2552L61.4768 23.3713L60.4785 22.2439L59.4802 23.3713L60.4785 24.2552ZM50.6191 35.3906L49.6209 34.5068L49.2858 34.8852V35.3906H50.6191ZM49.9993 40.8698V39.5365C50.2469 39.5365 50.4457 39.6496 50.5659 39.7802C50.6815 39.9059 50.7493 40.0709 50.7493 40.25H49.416H48.0827C48.0827 41.2077 48.8324 42.2031 49.9993 42.2031V40.8698ZM49.416 40.25H50.7493V35.1354H49.416H48.0827V40.25H49.416ZM49.416 35.1354H50.7493C50.7493 35.1951 50.7335 35.4483 50.5047 35.6772L49.5618 34.7344L48.619 33.7916C48.1714 34.2392 48.0827 34.7841 48.0827 35.1354H49.416ZM49.5618 34.7344L50.5587 35.6199L61.0379 23.823L60.041 22.9375L59.0442 22.052L48.565 33.8489L49.5618 34.7344ZM60.041 22.9375L61.0534 23.8052C60.8694 24.0198 60.6377 24.0794 60.4831 24.0794C60.3267 24.0794 60.1517 24.0223 60.0097 23.8803L60.9525 22.9375L61.8953 21.9947C61.1631 21.2626 59.8171 21.15 59.0287 22.0698L60.041 22.9375ZM60.9525 22.9375L59.9541 23.8213L70.3968 35.6181L71.3952 34.7344L72.3936 33.8506L61.9508 22.0537L60.9525 22.9375ZM71.3952 34.7344L70.4524 35.6772C70.4047 35.6295 70.3573 35.5668 70.3191 35.4851C70.2809 35.4032 70.2441 35.2845 70.2441 35.1354H71.5775H72.9108C72.9108 34.5559 72.6345 34.0881 72.338 33.7916L71.3952 34.7344ZM71.5775 35.1354H70.2441V37.5104H71.5775H72.9108V35.1354H71.5775ZM71.5775 37.5104H70.2441C70.2441 37.2772 70.3444 37.104 70.4478 37.0006C70.5512 36.8971 70.7244 36.7969 70.9577 36.7969V38.1302V39.4635C72.0222 39.4635 72.9108 38.5749 72.9108 37.5104H71.5775ZM70.9577 38.1302V36.7969C71.1909 36.7969 71.3641 36.8971 71.4675 37.0006C71.571 37.104 71.6712 37.2772 71.6712 37.5104H70.3379H69.0046C69.0046 38.5749 69.8932 39.4635 70.9577 39.4635V38.1302ZM70.3379 37.5104H71.6712V35.3906H70.3379H69.0046V37.5104H70.3379ZM70.3379 35.3906L71.3362 34.5068L61.4768 23.3713L60.4785 24.2552L59.4802 25.1391L69.3396 36.2745L70.3379 35.3906ZM60.4785 24.2552L59.4802 23.3713L49.6209 34.5068L50.6191 35.3906L51.6174 36.2745L61.4768 25.1391L60.4785 24.2552ZM50.6191 35.3906H49.2858V40.25H50.6191H51.9525V35.3906H50.6191ZM50.6191 40.25H49.2858C49.2858 39.8936 49.5768 39.5365 49.9993 39.5365V40.8698V42.2031C51.1511 42.2031 51.9525 41.2627 51.9525 40.25H50.6191Z" fill="url(#paint7_linear_3848_1152)" mask="url(#path-23-inside-7_3848_1152)"/>
<mask id="path-25-inside-8_3848_1152" fill="white">
<path fill-rule="evenodd" clip-rule="evenodd" d="M64.0931 35.7549H49.9993C49.6712 35.7549 49.416 35.4632 49.416 35.1351C49.416 34.807 49.6712 34.5518 49.9993 34.5518H64.0931C64.4212 34.5518 64.7129 34.807 64.7129 35.1351C64.7129 35.4632 64.4212 35.7549 64.0931 35.7549Z"/>
</mask>
<path fill-rule="evenodd" clip-rule="evenodd" d="M64.0931 35.7549H49.9993C49.6712 35.7549 49.416 35.4632 49.416 35.1351C49.416 34.807 49.6712 34.5518 49.9993 34.5518H64.0931C64.4212 34.5518 64.7129 34.807 64.7129 35.1351C64.7129 35.4632 64.4212 35.7549 64.0931 35.7549Z" fill="white"/>
<path d="M64.0931 35.7549V34.4215H49.9993V35.7549V37.0882H64.0931V35.7549ZM49.9993 35.7549V34.4215C50.2469 34.4215 50.4457 34.5347 50.5659 34.6653C50.6815 34.791 50.7493 34.956 50.7493 35.1351H49.416H48.0827C48.0827 36.0928 48.8324 37.0882 49.9993 37.0882V35.7549ZM49.416 35.1351H50.7493C50.7493 35.5433 50.4076 35.8851 49.9993 35.8851V34.5518V33.2184C48.9348 33.2184 48.0827 34.0706 48.0827 35.1351H49.416ZM49.9993 34.5518V35.8851H64.0931V34.5518V33.2184H49.9993V34.5518ZM64.0931 34.5518V35.8851C63.914 35.8851 63.749 35.8172 63.6233 35.7016C63.4927 35.5814 63.3796 35.3827 63.3796 35.1351H64.7129H66.0462C66.0462 33.9681 65.0508 33.2184 64.0931 33.2184V34.5518ZM64.7129 35.1351H63.3796C63.3796 34.9018 63.4798 34.7287 63.5832 34.6252C63.6867 34.5218 63.8599 34.4215 64.0931 34.4215V35.7549V37.0882C65.1576 37.0882 66.0462 36.1996 66.0462 35.1351H64.7129Z" fill="url(#paint8_linear_3848_1152)" mask="url(#path-25-inside-8_3848_1152)"/>
<mask id="path-27-inside-9_3848_1152" fill="white">
<path fill-rule="evenodd" clip-rule="evenodd" d="M29.0729 56.9372C28.7448 56.9372 28.4531 56.6455 28.4531 56.3174V51.2028C28.4531 51.057 28.526 50.9111 28.599 50.8018L39.0781 39.0049C39.2969 38.7497 39.776 38.7497 39.9948 39.0049L47.9167 47.9163C48.1354 48.1715 48.099 48.5361 47.8438 48.7913C47.5885 49.0101 47.224 48.9736 47.0052 48.7184L39.5573 40.3226L29.6563 51.458V56.3174C29.6563 56.6455 29.401 56.9372 29.0729 56.9372Z"/>
</mask>
<path fill-rule="evenodd" clip-rule="evenodd" d="M29.0729 56.9372C28.7448 56.9372 28.4531 56.6455 28.4531 56.3174V51.2028C28.4531 51.057 28.526 50.9111 28.599 50.8018L39.0781 39.0049C39.2969 38.7497 39.776 38.7497 39.9948 39.0049L47.9167 47.9163C48.1354 48.1715 48.099 48.5361 47.8438 48.7913C47.5885 49.0101 47.224 48.9736 47.0052 48.7184L39.5573 40.3226L29.6563 51.458V56.3174C29.6563 56.6455 29.401 56.9372 29.0729 56.9372Z" fill="white"/>
<path d="M28.599 50.8018L27.6021 49.9163L27.5408 49.9853L27.4896 50.0622L28.599 50.8018ZM39.0781 39.0049L40.075 39.8904L40.0828 39.8816L40.0905 39.8726L39.0781 39.0049ZM39.9948 39.0049L38.9825 39.8726L38.9903 39.8817L38.9983 39.8907L39.9948 39.0049ZM47.9167 47.9163L48.929 47.0486L48.9212 47.0395L48.9132 47.0305L47.9167 47.9163ZM47.8438 48.7913L48.7115 49.8037L48.7503 49.7704L48.7866 49.7342L47.8438 48.7913ZM47.0052 48.7184L48.0176 47.8507L48.0102 47.8421L48.0026 47.8336L47.0052 48.7184ZM39.5573 40.3226L40.5547 39.4378L39.5584 38.3147L38.5609 39.4366L39.5573 40.3226ZM29.6562 51.458L28.6598 50.572L28.3229 50.951V51.458H29.6562ZM29.0729 56.9372V55.6038C29.3062 55.6038 29.4794 55.7041 29.5828 55.8075C29.6862 55.9109 29.7865 56.0841 29.7865 56.3174H28.4531H27.1198C27.1198 57.3819 28.0084 58.2705 29.0729 58.2705V56.9372ZM28.4531 56.3174H29.7865V51.2028H28.4531H27.1198V56.3174H28.4531ZM28.4531 51.2028H29.7865C29.7865 51.3472 29.7518 51.4459 29.7367 51.4838C29.7279 51.5058 29.7202 51.5208 29.7159 51.5285C29.7116 51.5365 29.7088 51.5407 29.7084 51.5414L28.599 50.8018L27.4896 50.0622C27.3724 50.2379 27.1198 50.6562 27.1198 51.2028H28.4531ZM28.599 50.8018L29.5958 51.6872L40.075 39.8904L39.0781 39.0049L38.0813 38.1194L27.6021 49.9163L28.599 50.8018ZM39.0781 39.0049L40.0905 39.8726C39.8889 40.1078 39.653 40.1468 39.5365 40.1468C39.4199 40.1468 39.184 40.1078 38.9825 39.8726L39.9948 39.0049L41.0071 38.1372C40.5868 37.6468 40.0019 37.4801 39.5365 37.4801C39.071 37.4801 38.4861 37.6468 38.0658 38.1372L39.0781 39.0049ZM39.9948 39.0049L38.9983 39.8907L46.9202 48.8022L47.9167 47.9163L48.9132 47.0305L40.9913 38.119L39.9948 39.0049ZM47.9167 47.9163L46.9043 48.7841C46.7742 48.6322 46.7127 48.4299 46.7298 48.2367C46.746 48.0528 46.827 47.9225 46.9009 47.8485L47.8438 48.7913L48.7866 49.7342C49.4472 49.0735 49.6773 47.9216 48.929 47.0486L47.9167 47.9163ZM47.8438 48.7913L46.976 47.779C47.3062 47.496 47.7799 47.5735 48.0176 47.8507L47.0052 48.7184L45.9929 49.5861C46.668 50.3738 47.8708 50.5242 48.7115 49.8037L47.8438 48.7913ZM47.0052 48.7184L48.0026 47.8336L40.5547 39.4378L39.5573 40.3226L38.5599 41.2074L46.0078 49.6032L47.0052 48.7184ZM39.5573 40.3226L38.5609 39.4366L28.6598 50.572L29.6562 51.458L30.6527 52.344L40.5537 41.2086L39.5573 40.3226ZM29.6562 51.458H28.3229V56.3174H29.6562H30.9896V51.458H29.6562ZM29.6562 56.3174H28.3229C28.3229 56.1383 28.3908 55.9732 28.5064 55.8476C28.6266 55.717 28.8253 55.6038 29.0729 55.6038V56.9372V58.2705C30.2399 58.2705 30.9896 57.275 30.9896 56.3174H29.6562Z" fill="url(#paint9_linear_3848_1152)" mask="url(#path-27-inside-9_3848_1152)"/>
<mask id="path-29-inside-10_3848_1152" fill="white">
<path fill-rule="evenodd" clip-rule="evenodd" d="M43.1354 51.8232H29.0729C28.7448 51.8232 28.4531 51.5316 28.4531 51.2035C28.4531 50.8753 28.7448 50.6201 29.0729 50.6201H43.1354C43.5 50.6201 43.7552 50.8753 43.7552 51.2035C43.7552 51.5316 43.5 51.8232 43.1354 51.8232Z"/>
</mask>
<path fill-rule="evenodd" clip-rule="evenodd" d="M43.1354 51.8232H29.0729C28.7448 51.8232 28.4531 51.5316 28.4531 51.2035C28.4531 50.8753 28.7448 50.6201 29.0729 50.6201H43.1354C43.5 50.6201 43.7552 50.8753 43.7552 51.2035C43.7552 51.5316 43.5 51.8232 43.1354 51.8232Z" fill="white"/>
<path d="M43.1354 51.8232V50.4899H29.0729V51.8232V53.1566H43.1354V51.8232ZM29.0729 51.8232V50.4899C29.3062 50.4899 29.4794 50.5902 29.5828 50.6936C29.6862 50.797 29.7865 50.9702 29.7865 51.2035H28.4531H27.1198C27.1198 52.268 28.0084 53.1566 29.0729 53.1566V51.8232ZM28.4531 51.2035H29.7865C29.7865 51.451 29.6733 51.6498 29.5427 51.77C29.4171 51.8856 29.252 51.9535 29.0729 51.9535V50.6201V49.2868C28.1153 49.2868 27.1198 50.0365 27.1198 51.2035H28.4531ZM29.0729 50.6201V51.9535H43.1354V50.6201V49.2868H29.0729V50.6201ZM43.1354 50.6201V51.9535C42.9999 51.9535 42.8165 51.9019 42.6595 51.7514C42.5018 51.6002 42.4219 51.3963 42.4219 51.2035H43.7552H45.0885C45.0885 50.086 44.1823 49.2868 43.1354 49.2868V50.6201ZM43.7552 51.2035H42.4219C42.4219 50.847 42.7128 50.4899 43.1354 50.4899V51.8232V53.1566C44.2872 53.1566 45.0885 52.2161 45.0885 51.2035H43.7552Z" fill="url(#paint10_linear_3848_1152)" mask="url(#path-29-inside-10_3848_1152)"/>
<mask id="mask8_3848_1152" style="mask-type:luminance" maskUnits="userSpaceOnUse" x="28" y="54" width="23" height="27">
<path d="M50 55.334V80.1826H28.667V55.334H50Z" fill="white" stroke="white" stroke-width="1.33333"/>
</mask>
<g mask="url(#mask8_3848_1152)">
<mask id="path-32-inside-11_3848_1152" fill="white">
<path fill-rule="evenodd" clip-rule="evenodd" d="M29.0729 81.1465C28.7448 81.1465 28.4531 80.8913 28.4531 80.5632V56.3184C28.4531 55.9902 28.7448 55.6934 29.0729 55.6934H50C50.3646 55.6934 50.6198 55.9902 50.6198 56.3184C50.6198 56.6465 50.3646 56.9382 50 56.9382H29.6563V80.5632C29.6563 80.8913 29.401 81.1465 29.0729 81.1465Z"/>
</mask>
<path fill-rule="evenodd" clip-rule="evenodd" d="M29.0729 81.1465C28.7448 81.1465 28.4531 80.8913 28.4531 80.5632V56.3184C28.4531 55.9902 28.7448 55.6934 29.0729 55.6934H50C50.3646 55.6934 50.6198 55.9902 50.6198 56.3184C50.6198 56.6465 50.3646 56.9382 50 56.9382H29.6563V80.5632C29.6563 80.8913 29.401 81.1465 29.0729 81.1465Z" fill="white"/>
<path d="M29.6562 56.9382V55.6048H28.3229V56.9382H29.6562ZM29.0729 81.1465V79.8132C29.252 79.8132 29.4171 79.881 29.5427 79.9966C29.6733 80.1168 29.7865 80.3156 29.7865 80.5632H28.4531H27.1198C27.1198 81.7301 28.1153 82.4798 29.0729 82.4798V81.1465ZM28.4531 80.5632H29.7865V56.3184H28.4531H27.1198V80.5632H28.4531ZM28.4531 56.3184H29.7865C29.7865 56.5496 29.6879 56.7193 29.5881 56.8202C29.488 56.9215 29.3138 57.0267 29.0729 57.0267V55.6934V54.36C27.9942 54.36 27.1198 55.2682 27.1198 56.3184H28.4531ZM29.0729 55.6934V57.0267H50V55.6934V54.36H29.0729V55.6934ZM50 55.6934V57.0267C49.5635 57.0267 49.2865 56.6602 49.2865 56.3184H50.6198H51.9531C51.9531 55.3203 51.1657 54.36 50 54.36V55.6934ZM50.6198 56.3184H49.2865C49.2865 55.9619 49.5774 55.6048 50 55.6048V56.9382V58.2715C51.1517 58.2715 51.9531 57.331 51.9531 56.3184H50.6198ZM50 56.9382V55.6048H29.6562V56.9382V58.2715H50V56.9382ZM29.6562 56.9382H28.3229V80.5632H29.6562H30.9896V56.9382H29.6562ZM29.6562 80.5632H28.3229C28.3229 80.1549 28.6647 79.8132 29.0729 79.8132V81.1465V82.4798C30.1374 82.4798 30.9896 81.6277 30.9896 80.5632H29.6562Z" fill="url(#paint11_linear_3848_1152)" mask="url(#path-32-inside-11_3848_1152)"/>
</g>
<mask id="mask9_3848_1152" style="mask-type:luminance" maskUnits="userSpaceOnUse" x="49" y="38" width="23" height="43">
<path d="M71.334 39.334V80.1826H50.001V39.334H71.334Z" fill="white" stroke="white" stroke-width="1.33333"/>
</mask>
<g mask="url(#mask9_3848_1152)">
<mask id="path-35-inside-12_3848_1152" fill="white">
<path fill-rule="evenodd" clip-rule="evenodd" d="M70.9596 81.1465C70.6315 81.1465 70.3398 80.8913 70.3398 80.5632V40.8704H50.6211V80.5632C50.6211 80.8913 50.3659 81.1465 50.0013 81.1465C49.6732 81.1465 49.418 80.8913 49.418 80.5632V40.2507C49.418 39.9225 49.6732 39.6309 50.0013 39.6309H70.9596C71.2878 39.6309 71.5794 39.9225 71.5794 40.2507V80.5632C71.5794 80.8913 71.2878 81.1465 70.9596 81.1465Z"/>
</mask>
<path fill-rule="evenodd" clip-rule="evenodd" d="M70.9596 81.1465C70.6315 81.1465 70.3398 80.8913 70.3398 80.5632V40.8704H50.6211V80.5632C50.6211 80.8913 50.3659 81.1465 50.0013 81.1465C49.6732 81.1465 49.418 80.8913 49.418 80.5632V40.2507C49.418 39.9225 49.6732 39.6309 50.0013 39.6309H70.9596C71.2878 39.6309 71.5794 39.9225 71.5794 40.2507V80.5632C71.5794 80.8913 71.2878 81.1465 70.9596 81.1465Z" fill="white"/>
<path d="M70.3398 40.8704H71.6732V39.5371H70.3398V40.8704ZM50.6211 40.8704V39.5371H49.2878V40.8704H50.6211ZM70.9596 81.1465V79.8132C71.1387 79.8132 71.3038 79.881 71.4294 79.9966C71.5601 80.1168 71.6732 80.3156 71.6732 80.5632H70.3398H69.0065C69.0065 81.7301 70.002 82.4798 70.9596 82.4798V81.1465ZM70.3398 80.5632H71.6732V40.8704H70.3398H69.0065V80.5632H70.3398ZM70.3398 40.8704V39.5371H50.6211V40.8704V42.2038H70.3398V40.8704ZM50.6211 40.8704H49.2878V80.5632H50.6211H51.9544V40.8704H50.6211ZM50.6211 80.5632H49.2878C49.2878 80.3703 49.3677 80.1664 49.5254 80.0152C49.6824 79.8647 49.8658 79.8132 50.0013 79.8132V81.1465V82.4798C51.0482 82.4798 51.9544 81.6806 51.9544 80.5632H50.6211ZM50.0013 81.1465V79.8132C50.4096 79.8132 50.7513 80.1549 50.7513 80.5632H49.418H48.0846C48.0846 81.6277 48.9368 82.4798 50.0013 82.4798V81.1465ZM49.418 80.5632H50.7513V40.2507H49.418H48.0846V80.5632H49.418ZM49.418 40.2507H50.7513C50.7513 40.4298 50.6834 40.5948 50.5678 40.7205C50.4477 40.8511 50.2489 40.9642 50.0013 40.9642V39.6309V38.2975C48.8343 38.2975 48.0846 39.293 48.0846 40.2507H49.418ZM50.0013 39.6309V40.9642H70.9596V39.6309V38.2975H50.0013V39.6309ZM70.9596 39.6309V40.9642C70.7264 40.9642 70.5532 40.8639 70.4498 40.7605C70.3463 40.6571 70.2461 40.4839 70.2461 40.2507H71.5794H72.9128C72.9128 39.1861 72.0241 38.2975 70.9596 38.2975V39.6309ZM71.5794 40.2507H70.2461V80.5632H71.5794H72.9128V40.2507H71.5794ZM71.5794 80.5632H70.2461C70.2461 80.3156 70.3592 80.1168 70.4898 79.9966C70.6155 79.881 70.7805 79.8132 70.9596 79.8132V81.1465V82.4798C71.9173 82.4798 72.9128 81.7301 72.9128 80.5632H71.5794Z" fill="url(#paint12_linear_3848_1152)" mask="url(#path-35-inside-12_3848_1152)"/>
</g>
<mask id="path-37-inside-13_3848_1152" fill="white">
<path fill-rule="evenodd" clip-rule="evenodd" d="M44.9948 67.3802H34.0781C33.3125 67.3802 32.6875 66.7604 32.6875 65.9948V61.2448C32.6875 60.4792 33.3125 59.8594 34.0781 59.8594H44.9948C45.7604 59.8594 46.3854 60.4792 46.3854 61.2448V65.9948C46.3854 66.7604 45.7604 67.3802 44.9948 67.3802ZM34.0781 61.0625C34.0052 61.0625 33.8958 61.1354 33.8958 61.2448V65.9948C33.8958 66.1042 34.0052 66.1771 34.0781 66.1771H44.9948C45.0677 66.1771 45.1771 66.1042 45.1771 65.9948V61.2448C45.1771 61.1354 45.0677 61.0625 44.9948 61.0625H34.0781Z"/>
</mask>
<path fill-rule="evenodd" clip-rule="evenodd" d="M44.9948 67.3802H34.0781C33.3125 67.3802 32.6875 66.7604 32.6875 65.9948V61.2448C32.6875 60.4792 33.3125 59.8594 34.0781 59.8594H44.9948C45.7604 59.8594 46.3854 60.4792 46.3854 61.2448V65.9948C46.3854 66.7604 45.7604 67.3802 44.9948 67.3802ZM34.0781 61.0625C34.0052 61.0625 33.8958 61.1354 33.8958 61.2448V65.9948C33.8958 66.1042 34.0052 66.1771 34.0781 66.1771H44.9948C45.0677 66.1771 45.1771 66.1042 45.1771 65.9948V61.2448C45.1771 61.1354 45.0677 61.0625 44.9948 61.0625H34.0781Z" fill="white"/>
<path d="M44.9948 67.3802V66.0469H34.0781V67.3802V68.7135H44.9948V67.3802ZM34.0781 67.3802V66.0469C34.068 66.0469 34.0612 66.0451 34.0557 66.0427C34.0492 66.04 34.0423 66.0356 34.0361 66.0294C34.0298 66.0232 34.026 66.017 34.024 66.0121C34.0223 66.0082 34.0208 66.0032 34.0208 65.9948H32.6875H31.3542C31.3542 67.5033 32.5826 68.7135 34.0781 68.7135V67.3802ZM32.6875 65.9948H34.0208V61.2448H32.6875H31.3542V65.9948H32.6875ZM32.6875 61.2448H34.0208C34.0208 61.2364 34.0223 61.2314 34.024 61.2275C34.026 61.2226 34.0298 61.2164 34.0361 61.2102C34.0423 61.204 34.0492 61.1996 34.0557 61.1969C34.0612 61.1945 34.068 61.1927 34.0781 61.1927V59.8594V58.526C32.5826 58.526 31.3542 59.7363 31.3542 61.2448H32.6875ZM34.0781 59.8594V61.1927H44.9948V59.8594V58.526H34.0781V59.8594ZM44.9948 59.8594V61.1927C45.0049 61.1927 45.0117 61.1945 45.0173 61.1969C45.0237 61.1996 45.0306 61.204 45.0369 61.2102C45.0431 61.2164 45.0469 61.2226 45.049 61.2275C45.0506 61.2314 45.0521 61.2364 45.0521 61.2448H46.3854H47.7188C47.7188 59.7363 46.4903 58.526 44.9948 58.526V59.8594ZM46.3854 61.2448H45.0521V65.9948H46.3854H47.7188V61.2448H46.3854ZM46.3854 65.9948H45.0521C45.0521 66.0032 45.0506 66.0082 45.049 66.0121C45.0469 66.017 45.0431 66.0232 45.0368 66.0294C45.0306 66.0356 45.0237 66.04 45.0173 66.0427C45.0117 66.0451 45.0049 66.0469 44.9948 66.0469V67.3802V68.7135C46.4903 68.7135 47.7188 67.5033 47.7188 65.9948H46.3854ZM34.0781 61.0625V59.7292C33.6547 59.7292 33.3082 59.9109 33.0816 60.1092C32.8298 60.3295 32.5625 60.7171 32.5625 61.2448H33.8958H35.2292C35.2292 61.6631 35.0165 61.9595 34.8376 62.1161C34.684 62.2505 34.4286 62.3958 34.0781 62.3958V61.0625ZM33.8958 61.2448H32.5625V65.9948H33.8958H35.2292V61.2448H33.8958ZM33.8958 65.9948H32.5625C32.5625 66.5224 32.8298 66.9101 33.0816 67.1304C33.3082 67.3286 33.6547 67.5104 34.0781 67.5104V66.1771V64.8438C34.4286 64.8438 34.684 64.9891 34.8376 65.1235C35.0165 65.28 35.2292 65.5765 35.2292 65.9948H33.8958ZM34.0781 66.1771V67.5104H44.9948V66.1771V64.8438H34.0781V66.1771ZM44.9948 66.1771V67.5104C45.4182 67.5104 45.7647 67.3286 45.9913 67.1304C46.2431 66.9101 46.5104 66.5225 46.5104 65.9948H45.1771H43.8438C43.8438 65.5765 44.0564 65.28 44.2353 65.1235C44.3889 64.9891 44.6443 64.8438 44.9948 64.8438V66.1771ZM45.1771 65.9948H46.5104V61.2448H45.1771H43.8438V65.9948H45.1771ZM45.1771 61.2448H46.5104C46.5104 60.7171 46.2431 60.3295 45.9913 60.1092C45.7647 59.9109 45.4182 59.7292 44.9948 59.7292V61.0625V62.3958C44.6443 62.3958 44.3889 62.2505 44.2353 62.1161C44.0564 61.9595 43.8438 61.6631 43.8438 61.2448H45.1771ZM44.9948 61.0625V59.7292H34.0781V61.0625V62.3958H44.9948V61.0625Z" fill="url(#paint13_linear_3848_1152)" mask="url(#path-37-inside-13_3848_1152)"/>
<mask id="mask10_3848_1152" style="mask-type:luminance" maskUnits="userSpaceOnUse" x="33" y="69" width="13" height="12">
<path d="M44.667 70V80.1816H34.001V70H44.667Z" fill="white" stroke="white" stroke-width="1.33333"/>
</mask>
<g mask="url(#mask10_3848_1152)">
<mask id="path-40-inside-14_3848_1152" fill="white">
<path fill-rule="evenodd" clip-rule="evenodd" d="M44.194 81.1455C43.8659 81.1455 43.6107 80.8903 43.6107 80.5622V71.5413H35.5013L35.4648 80.5622C35.4648 80.8903 35.2096 81.1455 34.8815 81.1455C34.5534 81.1455 34.2617 80.8903 34.2617 80.5622V71.5413C34.2617 70.8486 34.8086 70.3018 35.5013 70.3018H43.5742C44.2669 70.3018 44.8138 70.8486 44.8138 71.5413V80.5622C44.8138 80.8903 44.5221 81.1455 44.194 81.1455Z"/>
</mask>
<path fill-rule="evenodd" clip-rule="evenodd" d="M44.194 81.1455C43.8659 81.1455 43.6107 80.8903 43.6107 80.5622V71.5413H35.5013L35.4648 80.5622C35.4648 80.8903 35.2096 81.1455 34.8815 81.1455C34.5534 81.1455 34.2617 80.8903 34.2617 80.5622V71.5413C34.2617 70.8486 34.8086 70.3018 35.5013 70.3018H43.5742C44.2669 70.3018 44.8138 70.8486 44.8138 71.5413V80.5622C44.8138 80.8903 44.5221 81.1455 44.194 81.1455Z" fill="white"/>
<path d="M43.6107 71.5413H44.944V70.208H43.6107V71.5413ZM35.5013 71.5413V70.208H34.1733L34.168 71.536L35.5013 71.5413ZM35.4648 80.5622L34.1315 80.5568V80.5622H35.4648ZM44.194 81.1455V79.8122C44.6023 79.8122 44.944 80.1539 44.944 80.5622H43.6107H42.2773C42.2773 81.6267 43.1295 82.4788 44.194 82.4788V81.1455ZM43.6107 80.5622H44.944V71.5413H43.6107H42.2773V80.5622H43.6107ZM43.6107 71.5413V70.208H35.5013V71.5413V72.8747H43.6107V71.5413ZM35.5013 71.5413L34.168 71.536L34.1315 80.5568L35.4648 80.5622L36.7982 80.5676L36.8346 71.5467L35.5013 71.5413ZM35.4648 80.5622H34.1315C34.1315 80.1539 34.4733 79.8122 34.8815 79.8122V81.1455V82.4788C35.946 82.4788 36.7982 81.6267 36.7982 80.5622H35.4648ZM34.8815 81.1455V79.8122C35.0606 79.8122 35.2256 79.88 35.3513 79.9956C35.4819 80.1158 35.5951 80.3146 35.5951 80.5622H34.2617H32.9284C32.9284 81.7292 33.9239 82.4788 34.8815 82.4788V81.1455ZM34.2617 80.5622H35.5951V71.5413H34.2617H32.9284V80.5622H34.2617ZM34.2617 71.5413H35.5951C35.5951 71.545 35.594 71.5556 35.5883 71.5692C35.5829 71.5822 35.5748 71.5943 35.5646 71.6046C35.5543 71.6149 35.5421 71.623 35.5292 71.6284C35.5156 71.6341 35.505 71.6351 35.5013 71.6351V70.3018V68.9684C34.0722 68.9684 32.9284 70.1123 32.9284 71.5413H34.2617ZM35.5013 70.3018V71.6351H43.5742V70.3018V68.9684H35.5013V70.3018ZM43.5742 70.3018V71.6351C43.5705 71.6351 43.56 71.6341 43.5463 71.6284C43.5334 71.623 43.5213 71.6149 43.511 71.6046C43.5007 71.5943 43.4926 71.5822 43.4872 71.5692C43.4815 71.5556 43.4805 71.545 43.4805 71.5413H44.8138H46.1471C46.1471 70.1123 45.0033 68.9684 43.5742 68.9684V70.3018ZM44.8138 71.5413H43.4805V80.5622H44.8138H46.1471V71.5413H44.8138ZM44.8138 80.5622H43.4805C43.4805 80.3146 43.5936 80.1158 43.7242 79.9956C43.8499 79.88 44.0149 79.8122 44.194 79.8122V81.1455V82.4788C45.1517 82.4788 46.1471 81.7292 46.1471 80.5622H44.8138Z" fill="url(#paint14_linear_3848_1152)" mask="url(#path-40-inside-14_3848_1152)"/>
</g>
<mask id="path-42-inside-15_3848_1152" fill="white">
<path fill-rule="evenodd" clip-rule="evenodd" d="M42.1452 76.875C41.7806 76.875 41.5254 76.6198 41.5254 76.2552V75.1927C41.5254 74.8646 41.7806 74.6094 42.1452 74.6094C42.4733 74.6094 42.7285 74.8646 42.7285 75.1927V76.2552C42.7285 76.6198 42.4733 76.875 42.1452 76.875Z"/>
</mask>
<path fill-rule="evenodd" clip-rule="evenodd" d="M42.1452 76.875C41.7806 76.875 41.5254 76.6198 41.5254 76.2552V75.1927C41.5254 74.8646 41.7806 74.6094 42.1452 74.6094C42.4733 74.6094 42.7285 74.8646 42.7285 75.1927V76.2552C42.7285 76.6198 42.4733 76.875 42.1452 76.875Z" fill="white"/>
<path d="M42.1452 76.875V75.5417C42.2823 75.5417 42.4775 75.5951 42.6414 75.759C42.8053 75.9229 42.8587 76.1181 42.8587 76.2552H41.5254H40.1921C40.1921 76.7569 40.3731 77.262 40.7558 77.6446C41.1384 78.0273 41.6435 78.2083 42.1452 78.2083V76.875ZM41.5254 76.2552H42.8587V75.1927H41.5254H40.1921V76.2552H41.5254ZM41.5254 75.1927H42.8587C42.8587 75.3856 42.7788 75.5895 42.6211 75.7406C42.4641 75.8911 42.2807 75.9427 42.1452 75.9427V74.6094V73.276C41.0983 73.276 40.1921 74.0753 40.1921 75.1927H41.5254ZM42.1452 74.6094V75.9427C41.7369 75.9427 41.3952 75.601 41.3952 75.1927H42.7285H44.0618C44.0618 74.1282 43.2097 73.276 42.1452 73.276V74.6094ZM42.7285 75.1927H41.3952V76.2552H42.7285H44.0618V75.1927H42.7285ZM42.7285 76.2552H41.3952C41.3952 76.1197 41.4468 75.9363 41.5972 75.7793C41.7484 75.6216 41.9523 75.5417 42.1452 75.5417V76.875V78.2083C43.2626 78.2083 44.0618 77.3021 44.0618 76.2552H42.7285Z" fill="url(#paint15_linear_3848_1152)" mask="url(#path-42-inside-15_3848_1152)"/>
<mask id="mask11_3848_1152" style="mask-type:luminance" maskUnits="userSpaceOnUse" x="54" y="69" width="13" height="12">
<path d="M65.999 70V80.1816H55.333V70H65.999Z" fill="white" stroke="white" stroke-width="1.33333"/>
</mask>
<g mask="url(#mask11_3848_1152)">
<mask id="path-45-inside-16_3848_1152" fill="white">
<path fill-rule="evenodd" clip-rule="evenodd" d="M65.151 81.1455C64.8229 81.1455 64.5313 80.8903 64.5313 80.5622V71.5413H56.4271V80.5622C56.4271 80.8903 56.1719 81.1455 55.8021 81.1455C55.474 81.1455 55.2188 80.8903 55.2188 80.5622V71.5413C55.2188 70.8486 55.7656 70.3018 56.4271 70.3018H64.5313C65.1875 70.3018 65.776 70.8486 65.776 71.5413V80.5622C65.7344 80.8903 65.4792 81.1455 65.151 81.1455Z"/>
</mask>
<path fill-rule="evenodd" clip-rule="evenodd" d="M65.151 81.1455C64.8229 81.1455 64.5313 80.8903 64.5313 80.5622V71.5413H56.4271V80.5622C56.4271 80.8903 56.1719 81.1455 55.8021 81.1455C55.474 81.1455 55.2188 80.8903 55.2188 80.5622V71.5413C55.2188 70.8486 55.7656 70.3018 56.4271 70.3018H64.5313C65.1875 70.3018 65.776 70.8486 65.776 71.5413V80.5622C65.7344 80.8903 65.4792 81.1455 65.151 81.1455Z" fill="white"/>
<path d="M64.5312 71.5413H65.8646V70.208H64.5312V71.5413ZM56.4271 71.5413V70.208H55.0938V71.5413H56.4271ZM65.776 80.5622L67.0988 80.7301L67.1094 80.6465V80.5622H65.776ZM65.151 81.1455V79.8122C65.3302 79.8122 65.4952 79.88 65.6208 79.9956C65.7515 80.1158 65.8646 80.3146 65.8646 80.5622H64.5312H63.1979C63.1979 81.7292 64.1934 82.4788 65.151 82.4788V81.1455ZM64.5312 80.5622H65.8646V71.5413H64.5312H63.1979V80.5622H64.5312ZM64.5312 71.5413V70.208H56.4271V71.5413V72.8747H64.5312V71.5413ZM56.4271 71.5413H55.0938V80.5622H56.4271H57.7604V71.5413H56.4271ZM56.4271 80.5622H55.0938C55.0938 80.3689 55.1741 80.1635 55.3336 80.0115C55.4921 79.8605 55.6741 79.8122 55.8021 79.8122V81.1455V82.4788C56.8466 82.4788 57.7604 81.6869 57.7604 80.5622H56.4271ZM55.8021 81.1455V79.8122C56.2103 79.8122 56.5521 80.1539 56.5521 80.5622H55.2188H53.8854C53.8854 81.6267 54.7376 82.4788 55.8021 82.4788V81.1455ZM55.2188 80.5622H56.5521V71.5413H55.2188H53.8854V80.5622H55.2188ZM55.2188 71.5413H56.5521C56.5521 71.5627 56.5241 71.6351 56.4271 71.6351V70.3018V68.9684C55.0072 68.9684 53.8854 70.1345 53.8854 71.5413H55.2188ZM56.4271 70.3018V71.6351H64.5312V70.3018V68.9684H56.4271V70.3018ZM64.5312 70.3018V71.6351C64.4884 71.6351 64.4718 71.6193 64.4692 71.6167C64.4657 71.6133 64.4594 71.606 64.4534 71.5925C64.4469 71.5776 64.4427 71.5592 64.4427 71.5413H65.776H67.1094C67.1094 70.0799 65.8911 68.9684 64.5312 68.9684V70.3018ZM65.776 71.5413H64.4427V80.5622H65.776H67.1094V71.5413H65.776ZM65.776 80.5622L64.4533 80.3942C64.4844 80.1497 64.7176 79.8122 65.151 79.8122V81.1455V82.4788C66.2408 82.4788 66.9844 81.6309 67.0988 80.7301L65.776 80.5622Z" fill="url(#paint16_linear_3848_1152)" mask="url(#path-45-inside-16_3848_1152)"/>
</g>
<mask id="path-47-inside-17_3848_1152" fill="white">
<path fill-rule="evenodd" clip-rule="evenodd" d="M63.0736 76.875C62.7454 76.875 62.4902 76.6198 62.4902 76.2552V75.1927C62.4902 74.8646 62.7454 74.6094 63.0736 74.6094C63.4017 74.6094 63.6934 74.8646 63.6934 75.1927V76.2552C63.6934 76.6198 63.4017 76.875 63.0736 76.875Z"/>
</mask>
<path fill-rule="evenodd" clip-rule="evenodd" d="M63.0736 76.875C62.7454 76.875 62.4902 76.6198 62.4902 76.2552V75.1927C62.4902 74.8646 62.7454 74.6094 63.0736 74.6094C63.4017 74.6094 63.6934 74.8646 63.6934 75.1927V76.2552C63.6934 76.6198 63.4017 76.875 63.0736 76.875Z" fill="white"/>
<path d="M63.0736 76.875V75.5417C63.2664 75.5417 63.4704 75.6216 63.6215 75.7793C63.772 75.9363 63.8236 76.1197 63.8236 76.2552H62.4902H61.1569C61.1569 77.3021 61.9562 78.2083 63.0736 78.2083V76.875ZM62.4902 76.2552H63.8236V75.1927H62.4902H61.1569V76.2552H62.4902ZM62.4902 75.1927H63.8236C63.8236 75.601 63.4818 75.9427 63.0736 75.9427V74.6094V73.276C62.0091 73.276 61.1569 74.1282 61.1569 75.1927H62.4902ZM63.0736 74.6094V75.9427C62.8945 75.9427 62.7294 75.8748 62.6038 75.7592C62.4731 75.6391 62.36 75.4403 62.36 75.1927H63.6934H65.0267C65.0267 74.0257 64.0312 73.276 63.0736 73.276V74.6094ZM63.6934 75.1927H62.36V76.2552H63.6934H65.0267V75.1927H63.6934ZM63.6934 76.2552H62.36C62.36 75.8326 62.7171 75.5417 63.0736 75.5417V76.875V78.2083C64.0862 78.2083 65.0267 77.4069 65.0267 76.2552H63.6934Z" fill="url(#paint17_linear_3848_1152)" mask="url(#path-47-inside-17_3848_1152)"/>
<mask id="path-49-inside-18_3848_1152" fill="white">
<path fill-rule="evenodd" clip-rule="evenodd" d="M58.1035 50.182H54.1973C53.3587 50.182 52.666 49.4893 52.666 48.6455V44.7393C52.666 43.9007 53.3587 43.208 54.1973 43.208H58.1035C58.9421 43.208 59.64 43.9007 59.64 44.7393V48.6455C59.64 49.4893 58.9421 50.182 58.1035 50.182ZM54.1973 44.4111C54.015 44.4111 53.8691 44.557 53.8691 44.7393V48.6455C53.8691 48.8278 54.015 48.9736 54.1973 48.9736H58.1035C58.2858 48.9736 58.4316 48.8278 58.4316 48.6455V44.7393C58.4316 44.557 58.2858 44.4111 58.1035 44.4111H54.1973Z"/>
</mask>
<path fill-rule="evenodd" clip-rule="evenodd" d="M58.1035 50.182H54.1973C53.3587 50.182 52.666 49.4893 52.666 48.6455V44.7393C52.666 43.9007 53.3587 43.208 54.1973 43.208H58.1035C58.9421 43.208 59.64 43.9007 59.64 44.7393V48.6455C59.64 49.4893 58.9421 50.182 58.1035 50.182ZM54.1973 44.4111C54.015 44.4111 53.8691 44.557 53.8691 44.7393V48.6455C53.8691 48.8278 54.015 48.9736 54.1973 48.9736H58.1035C58.2858 48.9736 58.4316 48.8278 58.4316 48.6455V44.7393C58.4316 44.557 58.2858 44.4111 58.1035 44.4111H54.1973Z" fill="white"/>
<path d="M58.1035 50.182V48.8486H54.1973V50.182V51.5153H58.1035V50.182ZM54.1973 50.182V48.8486C54.1521 48.8486 54.1034 48.8308 54.0611 48.7884C54.019 48.7462 53.9993 48.6956 53.9993 48.6455H52.666H51.3327C51.3327 50.2227 52.6194 51.5153 54.1973 51.5153V50.182ZM52.666 48.6455H53.9993V44.7393H52.666H51.3327V48.6455H52.666ZM52.666 44.7393H53.9993C53.9993 44.6939 54.0173 44.6447 54.06 44.602C54.1027 44.5593 54.1519 44.5413 54.1973 44.5413V43.208V41.8747C52.6223 41.8747 51.3327 43.1643 51.3327 44.7393H52.666ZM54.1973 43.208V44.5413H58.1035V43.208V41.8747H54.1973V43.208ZM58.1035 43.208V44.5413C58.1496 44.5413 58.2011 44.5599 58.2456 44.6042C58.2898 44.6482 58.3066 44.697 58.3066 44.7393H59.64H60.9733C60.9733 43.1585 59.6726 41.8747 58.1035 41.8747V43.208ZM59.64 44.7393H58.3066V48.6455H59.64H60.9733V44.7393H59.64ZM59.64 48.6455H58.3066C58.3066 48.6925 58.2881 48.7427 58.2445 48.7862C58.2004 48.8302 58.1494 48.8486 58.1035 48.8486V50.182V51.5153C59.6755 51.5153 60.9733 50.2286 60.9733 48.6455H59.64ZM54.1973 44.4111V43.0778C53.2786 43.0778 52.5358 43.8206 52.5358 44.7393H53.8691H55.2025C55.2025 45.2933 54.7514 45.7445 54.1973 45.7445V44.4111ZM53.8691 44.7393H52.5358V48.6455H53.8691H55.2025V44.7393H53.8691ZM53.8691 48.6455H52.5358C52.5358 49.5642 53.2786 50.307 54.1973 50.307V48.9736V47.6403C54.7514 47.6403 55.2025 48.0914 55.2025 48.6455H53.8691ZM54.1973 48.9736V50.307H58.1035V48.9736V47.6403H54.1973V48.9736ZM58.1035 48.9736V50.307C59.0222 50.307 59.765 49.5642 59.765 48.6455H58.4316H57.0983C57.0983 48.0914 57.5494 47.6403 58.1035 47.6403V48.9736ZM58.4316 48.6455H59.765V44.7393H58.4316H57.0983V48.6455H58.4316ZM58.4316 44.7393H59.765C59.765 43.8206 59.0222 43.0778 58.1035 43.0778V44.4111V45.7445C57.5494 45.7445 57.0983 45.2933 57.0983 44.7393H58.4316ZM58.1035 44.4111V43.0778H54.1973V44.4111V45.7445H58.1035V44.4111Z" fill="url(#paint18_linear_3848_1152)" mask="url(#path-49-inside-18_3848_1152)"/>
<mask id="path-51-inside-19_3848_1152" fill="white">
<path fill-rule="evenodd" clip-rule="evenodd" d="M66.7611 50.182H62.8548C62.0111 50.182 61.3184 49.4893 61.3184 48.6455V44.7393C61.3184 43.9007 62.0111 43.208 62.8548 43.208H66.7611C67.5996 43.208 68.2923 43.9007 68.2923 44.7393V48.6455C68.2923 49.4893 67.5996 50.182 66.7611 50.182ZM62.8548 44.4111C62.6725 44.4111 62.5267 44.557 62.5267 44.7393V48.6455C62.5267 48.8278 62.6725 48.9736 62.8548 48.9736H66.7611C66.9434 48.9736 67.0892 48.8278 67.0892 48.6455V44.7393C67.0892 44.557 66.9434 44.4111 66.7611 44.4111H62.8548Z"/>
</mask>
<path fill-rule="evenodd" clip-rule="evenodd" d="M66.7611 50.182H62.8548C62.0111 50.182 61.3184 49.4893 61.3184 48.6455V44.7393C61.3184 43.9007 62.0111 43.208 62.8548 43.208H66.7611C67.5996 43.208 68.2923 43.9007 68.2923 44.7393V48.6455C68.2923 49.4893 67.5996 50.182 66.7611 50.182ZM62.8548 44.4111C62.6725 44.4111 62.5267 44.557 62.5267 44.7393V48.6455C62.5267 48.8278 62.6725 48.9736 62.8548 48.9736H66.7611C66.9434 48.9736 67.0892 48.8278 67.0892 48.6455V44.7393C67.0892 44.557 66.9434 44.4111 66.7611 44.4111H62.8548Z" fill="white"/>
<path d="M66.7611 50.182V48.8486H62.8548V50.182V51.5153H66.7611V50.182ZM62.8548 50.182V48.8486C62.8049 48.8486 62.7548 48.8292 62.713 48.7873C62.6712 48.7455 62.6517 48.6955 62.6517 48.6455H61.3184H59.985C59.985 50.2256 61.2747 51.5153 62.8548 51.5153V50.182ZM61.3184 48.6455H62.6517V44.7393H61.3184H59.985V48.6455H61.3184ZM61.3184 44.7393H62.6517C62.6517 44.6941 62.6695 44.6454 62.7119 44.6031C62.7541 44.561 62.8047 44.5413 62.8548 44.5413V43.208V41.8747C61.2776 41.8747 59.985 43.1614 59.985 44.7393H61.3184ZM62.8548 43.208V44.5413H66.7611V43.208V41.8747H62.8548V43.208ZM66.7611 43.208V44.5413C66.8064 44.5413 66.8557 44.5593 66.8983 44.602C66.941 44.6447 66.959 44.6939 66.959 44.7393H68.2923H69.6257C69.6257 43.1643 68.336 41.8747 66.7611 41.8747V43.208ZM68.2923 44.7393H66.959V48.6455H68.2923H69.6257V44.7393H68.2923ZM68.2923 48.6455H66.959C66.959 48.6956 66.9394 48.7462 66.8972 48.7884C66.855 48.8308 66.8063 48.8486 66.7611 48.8486V50.182V51.5153C68.3389 51.5153 69.6257 50.2227 69.6257 48.6455H68.2923ZM62.8548 44.4111V43.0778C61.9361 43.0778 61.1934 43.8206 61.1934 44.7393H62.5267H63.86C63.86 45.2933 63.4089 45.7445 62.8548 45.7445V44.4111ZM62.5267 44.7393H61.1934V48.6455H62.5267H63.86V44.7393H62.5267ZM62.5267 48.6455H61.1934C61.1934 49.5642 61.9361 50.307 62.8548 50.307V48.9736V47.6403C63.4089 47.6403 63.86 48.0914 63.86 48.6455H62.5267ZM62.8548 48.9736V50.307H66.7611V48.9736V47.6403H62.8548V48.9736ZM66.7611 48.9736V50.307C67.6797 50.307 68.4225 49.5642 68.4225 48.6455H67.0892H65.7559C65.7559 48.0914 66.207 47.6403 66.7611 47.6403V48.9736ZM67.0892 48.6455H68.4225V44.7393H67.0892H65.7559V48.6455H67.0892ZM67.0892 44.7393H68.4225C68.4225 43.8206 67.6797 43.0778 66.7611 43.0778V44.4111V45.7445C66.207 45.7445 65.7559 45.2933 65.7559 44.7393H67.0892ZM66.7611 44.4111V43.0778H62.8548V44.4111V45.7445H66.7611V44.4111Z" fill="url(#paint19_linear_3848_1152)" mask="url(#path-51-inside-19_3848_1152)"/>
<mask id="path-53-inside-20_3848_1152" fill="white">
<path fill-rule="evenodd" clip-rule="evenodd" d="M58.1035 59.0885H54.1973C53.3587 59.0885 52.666 58.3958 52.666 57.5573V53.6146C52.666 52.776 53.3587 52.0781 54.1973 52.0781H58.1035C58.9421 52.0781 59.64 52.776 59.64 53.6146V57.5573C59.64 58.3958 58.9421 59.0885 58.1035 59.0885ZM54.1973 53.3229C54.015 53.3229 53.8691 53.4687 53.8691 53.6146V57.5573C53.8691 57.7031 54.015 57.849 54.1973 57.849H58.1035C58.2858 57.849 58.4316 57.7031 58.4316 57.5573V53.6146C58.4316 53.4687 58.2858 53.3229 58.1035 53.3229H54.1973Z"/>
</mask>
<path fill-rule="evenodd" clip-rule="evenodd" d="M58.1035 59.0885H54.1973C53.3587 59.0885 52.666 58.3958 52.666 57.5573V53.6146C52.666 52.776 53.3587 52.0781 54.1973 52.0781H58.1035C58.9421 52.0781 59.64 52.776 59.64 53.6146V57.5573C59.64 58.3958 58.9421 59.0885 58.1035 59.0885ZM54.1973 53.3229C54.015 53.3229 53.8691 53.4687 53.8691 53.6146V57.5573C53.8691 57.7031 54.015 57.849 54.1973 57.849H58.1035C58.2858 57.849 58.4316 57.7031 58.4316 57.5573V53.6146C58.4316 53.4687 58.2858 53.3229 58.1035 53.3229H54.1973Z" fill="white"/>
<path d="M58.1035 59.0885V57.7552H54.1973V59.0885V60.4219H58.1035V59.0885ZM54.1973 59.0885V57.7552C54.1519 57.7552 54.1027 57.7372 54.06 57.6946C54.0173 57.6519 53.9993 57.6026 53.9993 57.5573H52.666H51.3327C51.3327 59.1322 52.6223 60.4219 54.1973 60.4219V59.0885ZM52.666 57.5573H53.9993V53.6146H52.666H51.3327V57.5573H52.666ZM52.666 53.6146H53.9993C53.9993 53.5685 54.0179 53.517 54.0622 53.4725C54.1062 53.4283 54.155 53.4115 54.1973 53.4115V52.0781V50.7448C52.6165 50.7448 51.3327 52.0455 51.3327 53.6146H52.666ZM54.1973 52.0781V53.4115H58.1035V52.0781V50.7448H54.1973V52.0781ZM58.1035 52.0781V53.4115C58.1464 53.4115 58.1976 53.4289 58.2434 53.4747C58.2892 53.5205 58.3066 53.5716 58.3066 53.6146H59.64H60.9733C60.9733 52.0397 59.6784 50.7448 58.1035 50.7448V52.0781ZM59.64 53.6146H58.3066V57.5573H59.64H60.9733V53.6146H59.64ZM59.64 57.5573H58.3066C58.3066 57.5995 58.2898 57.6484 58.2456 57.6924C58.2011 57.7366 58.1496 57.7552 58.1035 57.7552V59.0885V60.4219C59.6726 60.4219 60.9733 59.1381 60.9733 57.5573H59.64ZM54.1973 53.3229V51.9896C53.3811 51.9896 52.5358 52.6339 52.5358 53.6146H53.8691H55.2025C55.2025 53.9835 55.0276 54.2476 54.8692 54.3938C54.7004 54.5496 54.4653 54.6562 54.1973 54.6562V53.3229ZM53.8691 53.6146H52.5358V57.5573H53.8691H55.2025V53.6146H53.8691ZM53.8691 57.5573H52.5358C52.5358 58.538 53.3811 59.1823 54.1973 59.1823V57.849V56.5156C54.4653 56.5156 54.7004 56.6222 54.8692 56.7781C55.0276 56.9243 55.2025 57.1884 55.2025 57.5573H53.8691ZM54.1973 57.849V59.1823H58.1035V57.849V56.5156H54.1973V57.849ZM58.1035 57.849V59.1823C58.9197 59.1823 59.765 58.538 59.765 57.5573H58.4316H57.0983C57.0983 57.1884 57.2732 56.9243 57.4316 56.7781C57.6004 56.6222 57.8355 56.5156 58.1035 56.5156V57.849ZM58.4316 57.5573H59.765V53.6146H58.4316H57.0983V57.5573H58.4316ZM58.4316 53.6146H59.765C59.765 52.6339 58.9197 51.9896 58.1035 51.9896V53.3229V54.6562C57.8355 54.6562 57.6004 54.5496 57.4316 54.3938C57.2732 54.2476 57.0983 53.9835 57.0983 53.6146H58.4316ZM58.1035 53.3229V51.9896H54.1973V53.3229V54.6562H58.1035V53.3229Z" fill="url(#paint20_linear_3848_1152)" mask="url(#path-53-inside-20_3848_1152)"/>
<mask id="path-55-inside-21_3848_1152" fill="white">
<path fill-rule="evenodd" clip-rule="evenodd" d="M66.7611 59.0885H62.8548C62.0111 59.0885 61.3184 58.3958 61.3184 57.5573V53.6146C61.3184 52.776 62.0111 52.0781 62.8548 52.0781H66.7611C67.5996 52.0781 68.2923 52.776 68.2923 53.6146V57.5573C68.2923 58.3958 67.5996 59.0885 66.7611 59.0885ZM62.8548 53.3229C62.6725 53.3229 62.5267 53.4687 62.5267 53.6146V57.5573C62.5267 57.7031 62.6725 57.849 62.8548 57.849H66.7611C66.9434 57.849 67.0892 57.7031 67.0892 57.5573V53.6146C67.0892 53.4687 66.9434 53.3229 66.7611 53.3229H62.8548Z"/>
</mask>
<path fill-rule="evenodd" clip-rule="evenodd" d="M66.7611 59.0885H62.8548C62.0111 59.0885 61.3184 58.3958 61.3184 57.5573V53.6146C61.3184 52.776 62.0111 52.0781 62.8548 52.0781H66.7611C67.5996 52.0781 68.2923 52.776 68.2923 53.6146V57.5573C68.2923 58.3958 67.5996 59.0885 66.7611 59.0885ZM62.8548 53.3229C62.6725 53.3229 62.5267 53.4687 62.5267 53.6146V57.5573C62.5267 57.7031 62.6725 57.849 62.8548 57.849H66.7611C66.9434 57.849 67.0892 57.7031 67.0892 57.5573V53.6146C67.0892 53.4687 66.9434 53.3229 66.7611 53.3229H62.8548Z" fill="white"/>
<path d="M66.7611 59.0885V57.7552H62.8548V59.0885V60.4219H66.7611V59.0885ZM62.8548 59.0885V57.7552C62.8047 57.7552 62.7541 57.7356 62.7119 57.6935C62.6695 57.6512 62.6517 57.6025 62.6517 57.5573H61.3184H59.985C59.985 59.1352 61.2776 60.4219 62.8548 60.4219V59.0885ZM61.3184 57.5573H62.6517V53.6146H61.3184H59.985V57.5573H61.3184ZM61.3184 53.6146H62.6517C62.6517 53.5687 62.6701 53.5177 62.7141 53.4736C62.7576 53.43 62.8078 53.4115 62.8548 53.4115V52.0781V50.7448C61.2718 50.7448 59.985 52.0426 59.985 53.6146H61.3184ZM62.8548 52.0781V53.4115H66.7611V52.0781V50.7448H62.8548V52.0781ZM66.7611 52.0781V53.4115C66.8033 53.4115 66.8521 53.4283 66.8961 53.4725C66.9404 53.517 66.959 53.5685 66.959 53.6146H68.2923H69.6257C69.6257 52.0455 68.3419 50.7448 66.7611 50.7448V52.0781ZM68.2923 53.6146H66.959V57.5573H68.2923H69.6257V53.6146H68.2923ZM68.2923 57.5573H66.959C66.959 57.6026 66.941 57.6519 66.8983 57.6946C66.8557 57.7372 66.8064 57.7552 66.7611 57.7552V59.0885V60.4219C68.336 60.4219 69.6257 59.1322 69.6257 57.5573H68.2923ZM62.8548 53.3229V51.9896C62.0386 51.9896 61.1934 52.6339 61.1934 53.6146H62.5267H63.86C63.86 53.9835 63.6852 54.2476 63.5268 54.3938C63.3579 54.5496 63.1229 54.6562 62.8548 54.6562V53.3229ZM62.5267 53.6146H61.1934V57.5573H62.5267H63.86V53.6146H62.5267ZM62.5267 57.5573H61.1934C61.1934 58.538 62.0386 59.1823 62.8548 59.1823V57.849V56.5156C63.1229 56.5156 63.3579 56.6222 63.5268 56.7781C63.6852 56.9243 63.86 57.1884 63.86 57.5573H62.5267ZM62.8548 57.849V59.1823H66.7611V57.849V56.5156H62.8548V57.849ZM66.7611 57.849V59.1823C67.5772 59.1823 68.4225 58.538 68.4225 57.5573H67.0892H65.7559C65.7559 57.1884 65.9307 56.9243 66.0891 56.7781C66.2579 56.6222 66.493 56.5156 66.7611 56.5156V57.849ZM67.0892 57.5573H68.4225V53.6146H67.0892H65.7559V57.5573H67.0892ZM67.0892 53.6146H68.4225C68.4225 52.6339 67.5772 51.9896 66.7611 51.9896V53.3229V54.6562C66.493 54.6562 66.2579 54.5496 66.0891 54.3938C65.9307 54.2476 65.7559 53.9835 65.7559 53.6146H67.0892ZM66.7611 53.3229V51.9896H62.8548V53.3229V54.6562H66.7611V53.3229Z" fill="url(#paint21_linear_3848_1152)" mask="url(#path-55-inside-21_3848_1152)"/>
<mask id="path-57-inside-22_3848_1152" fill="white">
<path fill-rule="evenodd" clip-rule="evenodd" d="M58.1035 67.9632H54.1973C53.3587 67.9632 52.666 67.2705 52.666 66.432V62.5257C52.666 61.682 53.3587 60.9893 54.1973 60.9893H58.1035C58.9421 60.9893 59.64 61.682 59.64 62.5257V66.432C59.64 67.2705 58.9421 67.9632 58.1035 67.9632ZM54.1973 62.1924C54.015 62.1924 53.8691 62.3382 53.8691 62.5257V66.432C53.8691 66.6143 54.015 66.7601 54.1973 66.7601H58.1035C58.2858 66.7601 58.4316 66.6143 58.4316 66.432V62.5257C58.4316 62.3382 58.2858 62.1924 58.1035 62.1924H54.1973Z"/>
</mask>
<path fill-rule="evenodd" clip-rule="evenodd" d="M58.1035 67.9632H54.1973C53.3587 67.9632 52.666 67.2705 52.666 66.432V62.5257C52.666 61.682 53.3587 60.9893 54.1973 60.9893H58.1035C58.9421 60.9893 59.64 61.682 59.64 62.5257V66.432C59.64 67.2705 58.9421 67.9632 58.1035 67.9632ZM54.1973 62.1924C54.015 62.1924 53.8691 62.3382 53.8691 62.5257V66.432C53.8691 66.6143 54.015 66.7601 54.1973 66.7601H58.1035C58.2858 66.7601 58.4316 66.6143 58.4316 66.432V62.5257C58.4316 62.3382 58.2858 62.1924 58.1035 62.1924H54.1973Z" fill="white"/>
<path d="M58.1035 67.9632V66.6299H54.1973V67.9632V69.2965H58.1035V67.9632ZM54.1973 67.9632V66.6299C54.1519 66.6299 54.1027 66.6119 54.06 66.5692C54.0173 66.5266 53.9993 66.4773 53.9993 66.432H52.666H51.3327C51.3327 68.0069 52.6223 69.2965 54.1973 69.2965V67.9632ZM52.666 66.432H53.9993V62.5257H52.666H51.3327V66.432H52.666ZM52.666 62.5257H53.9993C53.9993 62.4756 54.019 62.425 54.0611 62.3828C54.1034 62.3404 54.1521 62.3226 54.1973 62.3226V60.9893V59.6559C52.6194 59.6559 51.3327 60.9485 51.3327 62.5257H52.666ZM54.1973 60.9893V62.3226H58.1035V60.9893V59.6559H54.1973V60.9893ZM58.1035 60.9893V62.3226C58.1494 62.3226 58.2004 62.341 58.2445 62.385C58.2881 62.4285 58.3066 62.4787 58.3066 62.5257H59.64H60.9733C60.9733 60.9427 59.6755 59.6559 58.1035 59.6559V60.9893ZM59.64 62.5257H58.3066V66.432H59.64H60.9733V62.5257H59.64ZM59.64 66.432H58.3066C58.3066 66.4742 58.2898 66.523 58.2456 66.567C58.2011 66.6113 58.1496 66.6299 58.1035 66.6299V67.9632V69.2965C59.6726 69.2965 60.9733 68.0128 60.9733 66.432H59.64ZM54.1973 62.1924V60.859C53.2649 60.859 52.5358 61.6156 52.5358 62.5257H53.8691H55.2025C55.2025 63.0608 54.7651 63.5257 54.1973 63.5257V62.1924ZM53.8691 62.5257H52.5358V66.432H53.8691H55.2025V62.5257H53.8691ZM53.8691 66.432H52.5358C52.5358 67.3506 53.2786 68.0934 54.1973 68.0934V66.7601V65.4268C54.7514 65.4268 55.2025 65.8779 55.2025 66.432H53.8691ZM54.1973 66.7601V68.0934H58.1035V66.7601V65.4268H54.1973V66.7601ZM58.1035 66.7601V68.0934C59.0222 68.0934 59.765 67.3506 59.765 66.432H58.4316H57.0983C57.0983 65.8779 57.5494 65.4268 58.1035 65.4268V66.7601ZM58.4316 66.432H59.765V62.5257H58.4316H57.0983V66.432H58.4316ZM58.4316 62.5257H59.765C59.765 61.6156 59.0359 60.859 58.1035 60.859V62.1924V63.5257C57.5357 63.5257 57.0983 63.0608 57.0983 62.5257H58.4316ZM58.1035 62.1924V60.859H54.1973V62.1924V63.5257H58.1035V62.1924Z" fill="url(#paint22_linear_3848_1152)" mask="url(#path-57-inside-22_3848_1152)"/>
<mask id="path-59-inside-23_3848_1152" fill="white">
<path fill-rule="evenodd" clip-rule="evenodd" d="M66.7611 67.9632H62.8548C62.0111 67.9632 61.3184 67.2705 61.3184 66.432V62.5257C61.3184 61.682 62.0111 60.9893 62.8548 60.9893H66.7611C67.5996 60.9893 68.2923 61.682 68.2923 62.5257V66.432C68.2923 67.2705 67.5996 67.9632 66.7611 67.9632ZM62.8548 62.1924C62.6725 62.1924 62.5267 62.3382 62.5267 62.5257V66.432C62.5267 66.6143 62.6725 66.7601 62.8548 66.7601H66.7611C66.9434 66.7601 67.0892 66.6143 67.0892 66.432V62.5257C67.0892 62.3382 66.9434 62.1924 66.7611 62.1924H62.8548Z"/>
</mask>
<path fill-rule="evenodd" clip-rule="evenodd" d="M66.7611 67.9632H62.8548C62.0111 67.9632 61.3184 67.2705 61.3184 66.432V62.5257C61.3184 61.682 62.0111 60.9893 62.8548 60.9893H66.7611C67.5996 60.9893 68.2923 61.682 68.2923 62.5257V66.432C68.2923 67.2705 67.5996 67.9632 66.7611 67.9632ZM62.8548 62.1924C62.6725 62.1924 62.5267 62.3382 62.5267 62.5257V66.432C62.5267 66.6143 62.6725 66.7601 62.8548 66.7601H66.7611C66.9434 66.7601 67.0892 66.6143 67.0892 66.432V62.5257C67.0892 62.3382 66.9434 62.1924 66.7611 62.1924H62.8548Z" fill="white"/>
<path d="M66.7611 67.9632V66.6299H62.8548V67.9632V69.2965H66.7611V67.9632ZM62.8548 67.9632V66.6299C62.8047 66.6299 62.7541 66.6103 62.7119 66.5681C62.6695 66.5259 62.6517 66.4772 62.6517 66.432H61.3184H59.985C59.985 68.0098 61.2776 69.2965 62.8548 69.2965V67.9632ZM61.3184 66.432H62.6517V62.5257H61.3184H59.985V66.432H61.3184ZM61.3184 62.5257H62.6517C62.6517 62.4758 62.6711 62.4257 62.713 62.3839C62.7548 62.342 62.8049 62.3226 62.8548 62.3226V60.9893V59.6559C61.2747 59.6559 59.985 60.9456 59.985 62.5257H61.3184ZM62.8548 60.9893V62.3226H66.7611V60.9893V59.6559H62.8548V60.9893ZM66.7611 60.9893V62.3226C66.8063 62.3226 66.855 62.3404 66.8972 62.3828C66.9394 62.425 66.959 62.4756 66.959 62.5257H68.2923H69.6257C69.6257 60.9485 68.3389 59.6559 66.7611 59.6559V60.9893ZM68.2923 62.5257H66.959V66.432H68.2923H69.6257V62.5257H68.2923ZM68.2923 66.432H66.959C66.959 66.4773 66.941 66.5266 66.8983 66.5692C66.8557 66.6119 66.8064 66.6299 66.7611 66.6299V67.9632V69.2965C68.336 69.2965 69.6257 68.0069 69.6257 66.432H68.2923ZM62.8548 62.1924V60.859C61.9224 60.859 61.1934 61.6156 61.1934 62.5257H62.5267H63.86C63.86 63.0608 63.4226 63.5257 62.8548 63.5257V62.1924ZM62.5267 62.5257H61.1934V66.432H62.5267H63.86V62.5257H62.5267ZM62.5267 66.432H61.1934C61.1934 67.3506 61.9361 68.0934 62.8548 68.0934V66.7601V65.4268C63.4089 65.4268 63.86 65.8779 63.86 66.432H62.5267ZM62.8548 66.7601V68.0934H66.7611V66.7601V65.4268H62.8548V66.7601ZM66.7611 66.7601V68.0934C67.6797 68.0934 68.4225 67.3506 68.4225 66.432H67.0892H65.7559C65.7559 65.8779 66.207 65.4268 66.7611 65.4268V66.7601ZM67.0892 66.432H68.4225V62.5257H67.0892H65.7559V66.432H67.0892ZM67.0892 62.5257H68.4225C68.4225 61.6156 67.6934 60.859 66.7611 60.859V62.1924V63.5257C66.1933 63.5257 65.7559 63.0608 65.7559 62.5257H67.0892ZM66.7611 62.1924V60.859H62.8548V62.1924V63.5257H66.7611V62.1924Z" fill="url(#paint23_linear_3848_1152)" mask="url(#path-59-inside-23_3848_1152)"/>
<mask id="mask12_3848_1152" style="mask-type:luminance" maskUnits="userSpaceOnUse" x="22" y="78" width="56" height="3">
<path d="M76.666 79.334V80.1826H23.333V79.334H76.666Z" fill="white" stroke="white" stroke-width="1.33333"/>
</mask>
<g mask="url(#mask12_3848_1152)">
<mask id="path-62-inside-24_3848_1152" fill="white">
<path fill-rule="evenodd" clip-rule="evenodd" d="M75.6712 81.1465H24.3639C24.0358 81.1465 23.7441 80.8913 23.7441 80.5632C23.7441 80.235 24.0358 79.9434 24.3639 79.9434H75.6712C75.9994 79.9434 76.2546 80.235 76.2546 80.5632C76.2546 80.8913 75.9994 81.1465 75.6712 81.1465Z"/>
</mask>
<path fill-rule="evenodd" clip-rule="evenodd" d="M75.6712 81.1465H24.3639C24.0358 81.1465 23.7441 80.8913 23.7441 80.5632C23.7441 80.235 24.0358 79.9434 24.3639 79.9434H75.6712C75.9994 79.9434 76.2546 80.235 76.2546 80.5632C76.2546 80.8913 75.9994 81.1465 75.6712 81.1465Z" fill="white"/>
<path d="M75.6712 81.1465V79.8132H24.3639V81.1465V82.4798H75.6712V81.1465ZM24.3639 81.1465V79.8132C24.543 79.8132 24.7081 79.881 24.8337 79.9966C24.9644 80.1168 25.0775 80.3156 25.0775 80.5632H23.7441H22.4108C22.4108 81.7301 23.4063 82.4798 24.3639 82.4798V81.1465ZM23.7441 80.5632H25.0775C25.0775 80.7964 24.9772 80.9696 24.8738 81.073C24.7704 81.1764 24.5972 81.2767 24.3639 81.2767V79.9434V78.61C23.2994 78.61 22.4108 79.4986 22.4108 80.5632H23.7441ZM24.3639 79.9434V81.2767H75.6712V79.9434V78.61H24.3639V79.9434ZM75.6712 79.9434V81.2767C75.4236 81.2767 75.2249 81.1636 75.1047 81.033C74.9891 80.9073 74.9212 80.7423 74.9212 80.5632H76.2546H77.5879C77.5879 79.6055 76.8382 78.61 75.6712 78.61V79.9434ZM76.2546 80.5632H74.9212C74.9212 80.1549 75.263 79.8132 75.6712 79.8132V81.1465V82.4798C76.7357 82.4798 77.5879 81.6277 77.5879 80.5632H76.2546Z" fill="url(#paint24_linear_3848_1152)" mask="url(#path-62-inside-24_3848_1152)"/>
</g>
<defs>
<radialGradient id="paint0_radial_3848_1152" cx="0" cy="0" r="1" gradientUnits="userSpaceOnUse" gradientTransform="translate(6.46821 6.46821) scale(123.127)">
<stop stop-color="#005B52"/>
<stop offset="0.0078125" stop-color="#005A51"/>
<stop offset="0.0195312" stop-color="#005950"/>
<stop offset="0.03125" stop-color="#005850"/>
<stop offset="0.0429688" stop-color="#00584F"/>
<stop offset="0.0546875" stop-color="#00574E"/>
<stop offset="0.0664062" stop-color="#00564E"/>
<stop offset="0.078125" stop-color="#00554D"/>
<stop offset="0.0898438" stop-color="#00544C"/>
<stop offset="0.101562" stop-color="#00544C"/>
<stop offset="0.113281" stop-color="#00534B"/>
<stop offset="0.125" stop-color="#00524A"/>
<stop offset="0.136719" stop-color="#005149"/>
<stop offset="0.148438" stop-color="#005149"/>
<stop offset="0.160156" stop-color="#005048"/>
<stop offset="0.171875" stop-color="#004F47"/>
<stop offset="0.183594" stop-color="#004E47"/>
<stop offset="0.195312" stop-color="#004D46"/>
<stop offset="0.207031" stop-color="#004D45"/>
<stop offset="0.21875" stop-color="#004C45"/>
<stop offset="0.230469" stop-color="#004B44"/>
<stop offset="0.242188" stop-color="#004A43"/>
<stop offset="0.253906" stop-color="#004943"/>
<stop offset="0.261719" stop-color="#004942"/>
<stop offset="0.269531" stop-color="#004842"/>
<stop offset="0.277344" stop-color="#004841"/>
<stop offset="0.285156" stop-color="#004741"/>
<stop offset="0.292969" stop-color="#004740"/>
<stop offset="0.300781" stop-color="#004640"/>
<stop offset="0.308594" stop-color="#00463F"/>
<stop offset="0.316406" stop-color="#00453F"/>
<stop offset="0.324219" stop-color="#00453E"/>
<stop offset="0.332031" stop-color="#00443E"/>
<stop offset="0.339844" stop-color="#00443D"/>
<stop offset="0.347656" stop-color="#00433D"/>
<stop offset="0.355469" stop-color="#00433C"/>
<stop offset="0.363281" stop-color="#00423C"/>
<stop offset="0.371094" stop-color="#00423C"/>
<stop offset="0.378906" stop-color="#00413B"/>
<stop offset="0.386719" stop-color="#00403B"/>
<stop offset="0.394531" stop-color="#00403A"/>
<stop offset="0.402344" stop-color="#003F3A"/>
<stop offset="0.410156" stop-color="#003F39"/>
<stop offset="0.417969" stop-color="#003E39"/>
<stop offset="0.425781" stop-color="#003E38"/>
<stop offset="0.433594" stop-color="#003D38"/>
<stop offset="0.441406" stop-color="#003D37"/>
<stop offset="0.449219" stop-color="#003C37"/>
<stop offset="0.457031" stop-color="#003C36"/>
<stop offset="0.464844" stop-color="#003B36"/>
<stop offset="0.472656" stop-color="#003B35"/>
<stop offset="0.480469" stop-color="#003A35"/>
<stop offset="0.488281" stop-color="#003A34"/>
<stop offset="0.496094" stop-color="#003934"/>
<stop offset="0.503906" stop-color="#003833"/>
<stop offset="0.515625" stop-color="#003833"/>
<stop offset="0.527344" stop-color="#003732"/>
<stop offset="0.539062" stop-color="#003631"/>
<stop offset="0.550781" stop-color="#003531"/>
<stop offset="0.5625" stop-color="#003430"/>
<stop offset="0.574219" stop-color="#00342F"/>
<stop offset="0.585938" stop-color="#00332E"/>
<stop offset="0.597656" stop-color="#00322E"/>
<stop offset="0.609375" stop-color="#00312D"/>
<stop offset="0.621094" stop-color="#00302C"/>
<stop offset="0.632812" stop-color="#00302C"/>
<stop offset="0.640625" stop-color="#002F2B"/>
<stop offset="0.648438" stop-color="#002F2B"/>
<stop offset="0.65625" stop-color="#002E2A"/>
<stop offset="0.664062" stop-color="#002E2A"/>
<stop offset="0.671875" stop-color="#002D29"/>
<stop offset="0.679688" stop-color="#002D29"/>
<stop offset="0.6875" stop-color="#002C29"/>
<stop offset="0.695312" stop-color="#002B28"/>
<stop offset="0.703125" stop-color="#002B28"/>
<stop offset="0.710938" stop-color="#002A27"/>
<stop offset="0.71875" stop-color="#002A27"/>
<stop offset="0.726562" stop-color="#002926"/>
<stop offset="0.734375" stop-color="#002926"/>
<stop offset="0.742188" stop-color="#002825"/>
<stop offset="0.75" stop-color="#002825"/>
<stop offset="0.757812" stop-color="#002724"/>
<stop offset="0.769531" stop-color="#002623"/>
<stop offset="0.78125" stop-color="#002523"/>
<stop offset="0.792969" stop-color="#002522"/>
<stop offset="0.804688" stop-color="#002421"/>
<stop offset="0.816406" stop-color="#002321"/>
<stop offset="0.824219" stop-color="#002320"/>
<stop offset="0.832031" stop-color="#002220"/>
<stop offset="0.839844" stop-color="#00221F"/>
<stop offset="0.847656" stop-color="#00211F"/>
<stop offset="0.855469" stop-color="#00211E"/>
<stop offset="0.863281" stop-color="#00201E"/>
<stop offset="0.871094" stop-color="#001F1E"/>
<stop offset="0.878906" stop-color="#001F1D"/>
<stop offset="0.890625" stop-color="#001E1C"/>
<stop offset="0.902344" stop-color="#001D1C"/>
<stop offset="0.914062" stop-color="#001D1B"/>
<stop offset="0.921875" stop-color="#001C1A"/>
<stop offset="0.929688" stop-color="#001C1A"/>
<stop offset="0.9375" stop-color="#001B1A"/>
<stop offset="0.945312" stop-color="#001A19"/>
<stop offset="0.957031" stop-color="#001A18"/>
<stop offset="0.964844" stop-color="#001918"/>
<stop offset="0.972656" stop-color="#001817"/>
<stop offset="0.984375" stop-color="#001817"/>
<stop offset="0.992188" stop-color="#001716"/>
<stop offset="1" stop-color="#001716"/>
</radialGradient>
<linearGradient id="paint1_linear_3848_1152" x1="36.8516" y1="24.4375" x2="36.8516" y2="30.3542" gradientUnits="userSpaceOnUse">
<stop stop-color="#F1DF7E"/>
<stop offset="0.29" stop-color="#E1AB3D"/>
<stop offset="0.695" stop-color="#FAF398"/>
<stop offset="1" stop-color="#CBA14D"/>
</linearGradient>
<linearGradient id="paint2_linear_3848_1152" x1="36.8516" y1="27.7607" x2="36.8516" y2="28.9639" gradientUnits="userSpaceOnUse">
<stop stop-color="#F1DF7E"/>
<stop offset="0.29" stop-color="#E1AB3D"/>
<stop offset="0.695" stop-color="#FAF398"/>
<stop offset="1" stop-color="#CBA14D"/>
</linearGradient>
<linearGradient id="paint3_linear_3848_1152" x1="42.7507" y1="24.4375" x2="42.7507" y2="30.3542" gradientUnits="userSpaceOnUse">
<stop stop-color="#F1DF7E"/>
<stop offset="0.29" stop-color="#E1AB3D"/>
<stop offset="0.695" stop-color="#FAF398"/>
<stop offset="1" stop-color="#CBA14D"/>
</linearGradient>
<linearGradient id="paint4_linear_3848_1152" x1="42.7507" y1="24.4375" x2="42.7507" y2="25.6406" gradientUnits="userSpaceOnUse">
<stop stop-color="#F1DF7E"/>
<stop offset="0.29" stop-color="#E1AB3D"/>
<stop offset="0.695" stop-color="#FAF398"/>
<stop offset="1" stop-color="#CBA14D"/>
</linearGradient>
<linearGradient id="paint5_linear_3848_1152" x1="42.7507" y1="29.1455" x2="42.7507" y2="30.3538" gradientUnits="userSpaceOnUse">
<stop stop-color="#F1DF7E"/>
<stop offset="0.29" stop-color="#E1AB3D"/>
<stop offset="0.695" stop-color="#FAF398"/>
<stop offset="1" stop-color="#CBA14D"/>
</linearGradient>
<linearGradient id="paint6_linear_3848_1152" x1="39.5358" y1="18.8486" x2="39.5358" y2="35.9372" gradientUnits="userSpaceOnUse">
<stop stop-color="#F1DF7E"/>
<stop offset="0.29" stop-color="#E1AB3D"/>
<stop offset="0.695" stop-color="#FAF398"/>
<stop offset="1" stop-color="#CBA14D"/>
</linearGradient>
<linearGradient id="paint7_linear_3848_1152" x1="60.4967" y1="22.7461" x2="60.4967" y2="40.8698" gradientUnits="userSpaceOnUse">
<stop stop-color="#F1DF7E"/>
<stop offset="0.29" stop-color="#E1AB3D"/>
<stop offset="0.695" stop-color="#FAF398"/>
<stop offset="1" stop-color="#CBA14D"/>
</linearGradient>
<linearGradient id="paint8_linear_3848_1152" x1="57.0645" y1="34.5518" x2="57.0645" y2="35.7549" gradientUnits="userSpaceOnUse">
<stop stop-color="#F1DF7E"/>
<stop offset="0.29" stop-color="#E1AB3D"/>
<stop offset="0.695" stop-color="#FAF398"/>
<stop offset="1" stop-color="#CBA14D"/>
</linearGradient>
<linearGradient id="paint9_linear_3848_1152" x1="38.2567" y1="38.8135" x2="38.2567" y2="56.9372" gradientUnits="userSpaceOnUse">
<stop stop-color="#F1DF7E"/>
<stop offset="0.29" stop-color="#E1AB3D"/>
<stop offset="0.695" stop-color="#FAF398"/>
<stop offset="1" stop-color="#CBA14D"/>
</linearGradient>
<linearGradient id="paint10_linear_3848_1152" x1="36.1042" y1="50.6201" x2="36.1042" y2="51.8232" gradientUnits="userSpaceOnUse">
<stop stop-color="#F1DF7E"/>
<stop offset="0.29" stop-color="#E1AB3D"/>
<stop offset="0.695" stop-color="#FAF398"/>
<stop offset="1" stop-color="#CBA14D"/>
</linearGradient>
<linearGradient id="paint11_linear_3848_1152" x1="39.5365" y1="55.6934" x2="39.5365" y2="81.1465" gradientUnits="userSpaceOnUse">
<stop stop-color="#F1DF7E"/>
<stop offset="0.29" stop-color="#E1AB3D"/>
<stop offset="0.695" stop-color="#FAF398"/>
<stop offset="1" stop-color="#CBA14D"/>
</linearGradient>
<linearGradient id="paint12_linear_3848_1152" x1="60.4987" y1="39.6309" x2="60.4987" y2="81.1465" gradientUnits="userSpaceOnUse">
<stop stop-color="#F1DF7E"/>
<stop offset="0.29" stop-color="#E1AB3D"/>
<stop offset="0.695" stop-color="#FAF398"/>
<stop offset="1" stop-color="#CBA14D"/>
</linearGradient>
<linearGradient id="paint13_linear_3848_1152" x1="39.5365" y1="59.8594" x2="39.5365" y2="67.3802" gradientUnits="userSpaceOnUse">
<stop stop-color="#F1DF7E"/>
<stop offset="0.29" stop-color="#E1AB3D"/>
<stop offset="0.695" stop-color="#FAF398"/>
<stop offset="1" stop-color="#CBA14D"/>
</linearGradient>
<linearGradient id="paint14_linear_3848_1152" x1="39.5378" y1="70.3018" x2="39.5378" y2="81.1455" gradientUnits="userSpaceOnUse">
<stop stop-color="#F1DF7E"/>
<stop offset="0.29" stop-color="#E1AB3D"/>
<stop offset="0.695" stop-color="#FAF398"/>
<stop offset="1" stop-color="#CBA14D"/>
</linearGradient>
<linearGradient id="paint15_linear_3848_1152" x1="42.127" y1="74.6094" x2="42.127" y2="76.875" gradientUnits="userSpaceOnUse">
<stop stop-color="#F1DF7E"/>
<stop offset="0.29" stop-color="#E1AB3D"/>
<stop offset="0.695" stop-color="#FAF398"/>
<stop offset="1" stop-color="#CBA14D"/>
</linearGradient>
<linearGradient id="paint16_linear_3848_1152" x1="60.4974" y1="70.3018" x2="60.4974" y2="81.1455" gradientUnits="userSpaceOnUse">
<stop stop-color="#F1DF7E"/>
<stop offset="0.29" stop-color="#E1AB3D"/>
<stop offset="0.695" stop-color="#FAF398"/>
<stop offset="1" stop-color="#CBA14D"/>
</linearGradient>
<linearGradient id="paint17_linear_3848_1152" x1="63.0918" y1="74.6094" x2="63.0918" y2="76.875" gradientUnits="userSpaceOnUse">
<stop stop-color="#F1DF7E"/>
<stop offset="0.29" stop-color="#E1AB3D"/>
<stop offset="0.695" stop-color="#FAF398"/>
<stop offset="1" stop-color="#CBA14D"/>
</linearGradient>
<linearGradient id="paint18_linear_3848_1152" x1="56.153" y1="43.208" x2="56.153" y2="50.182" gradientUnits="userSpaceOnUse">
<stop stop-color="#F1DF7E"/>
<stop offset="0.29" stop-color="#E1AB3D"/>
<stop offset="0.695" stop-color="#FAF398"/>
<stop offset="1" stop-color="#CBA14D"/>
</linearGradient>
<linearGradient id="paint19_linear_3848_1152" x1="64.8053" y1="43.208" x2="64.8053" y2="50.182" gradientUnits="userSpaceOnUse">
<stop stop-color="#F1DF7E"/>
<stop offset="0.29" stop-color="#E1AB3D"/>
<stop offset="0.695" stop-color="#FAF398"/>
<stop offset="1" stop-color="#CBA14D"/>
</linearGradient>
<linearGradient id="paint20_linear_3848_1152" x1="56.153" y1="52.0781" x2="56.153" y2="59.0885" gradientUnits="userSpaceOnUse">
<stop stop-color="#F1DF7E"/>
<stop offset="0.29" stop-color="#E1AB3D"/>
<stop offset="0.695" stop-color="#FAF398"/>
<stop offset="1" stop-color="#CBA14D"/>
</linearGradient>
<linearGradient id="paint21_linear_3848_1152" x1="64.8053" y1="52.0781" x2="64.8053" y2="59.0885" gradientUnits="userSpaceOnUse">
<stop stop-color="#F1DF7E"/>
<stop offset="0.29" stop-color="#E1AB3D"/>
<stop offset="0.695" stop-color="#FAF398"/>
<stop offset="1" stop-color="#CBA14D"/>
</linearGradient>
<linearGradient id="paint22_linear_3848_1152" x1="56.153" y1="60.9893" x2="56.153" y2="67.9632" gradientUnits="userSpaceOnUse">
<stop stop-color="#F1DF7E"/>
<stop offset="0.29" stop-color="#E1AB3D"/>
<stop offset="0.695" stop-color="#FAF398"/>
<stop offset="1" stop-color="#CBA14D"/>
</linearGradient>
<linearGradient id="paint23_linear_3848_1152" x1="64.8053" y1="60.9893" x2="64.8053" y2="67.9632" gradientUnits="userSpaceOnUse">
<stop stop-color="#F1DF7E"/>
<stop offset="0.29" stop-color="#E1AB3D"/>
<stop offset="0.695" stop-color="#FAF398"/>
<stop offset="1" stop-color="#CBA14D"/>
</linearGradient>
<linearGradient id="paint24_linear_3848_1152" x1="49.9993" y1="79.9434" x2="49.9993" y2="81.1465" gradientUnits="userSpaceOnUse">
<stop stop-color="#F1DF7E"/>
<stop offset="0.29" stop-color="#E1AB3D"/>
<stop offset="0.695" stop-color="#FAF398"/>
<stop offset="1" stop-color="#CBA14D"/>
</linearGradient>
</defs>
</svg>
